{
.appVersion = "895";
date = "2016-09-12 12:19:36 +0000";
familyName = YMFont;
featurePrefixes = (
{
automatic = 1;
code = "languagesystem DFLT dflt;\012languagesystem latn dflt;\012";
name = Languagesystems;
}
);
fontMaster = (
{
ascender = 800;
capHeight = 700;
descender = -200;
id = "AB75F081-BB78-472F-B186-224F31AB1B09";
userData = {
GSCornerRadius = 36;
GSOffsetHorizontal = 36;
GSOffsetMakeStroke = 1;
GSOffsetProportional = 1;
GSOffsetVertical = 10;
};
xHeight = 500;
}
);
glyphs = (
{
glyphname = A;
lastChange = "2016-09-22 22:57:21 +0000";
layers = (
{
hints = (
{
horizontal = 1;
place = "{1215, 1136}";
}
);
layerId = "AB75F081-BB78-472F-B186-224F31AB1B09";
paths = (
{
closed = 1;
nodes = (
"322 686 LINE SMOOTH",
"316 703 OFFCURVE",
"282 703 OFFCURVE",
"276 686 CURVE SMOOTH",
"63 52 LINE SMOOTH",
"55 30 OFFCURVE",
"64 14 OFFCURVE",
"86 6 CURVE SMOOTH",
"108 -2 OFFCURVE",
"125 7 OFFCURVE",
"132 29 CURVE SMOOTH",
"299 529 LINE",
"465 29 LINE SMOOTH",
"472 7 OFFCURVE",
"488 -2 OFFCURVE",
"511 6 CURVE SMOOTH",
"534 14 OFFCURVE",
"541 30 OFFCURVE",
"534 52 CURVE SMOOTH"
);
},
{
closed = 1;
nodes = (
"176 224 LINE SMOOTH",
"153 224 OFFCURVE",
"140 211 OFFCURVE",
"140 188 CURVE SMOOTH",
"140 165 OFFCURVE",
"153 152 OFFCURVE",
"176 152 CURVE SMOOTH",
"422 152 LINE SMOOTH",
"445 152 OFFCURVE",
"458 165 OFFCURVE",
"458 188 CURVE SMOOTH",
"458 211 OFFCURVE",
"445 224 OFFCURVE",
"422 224 CURVE SMOOTH"
);
}
);
width = 597;
}
);
unicode = 0041;
},
{
glyphname = B;
lastChange = "2016-09-22 22:57:21 +0000";
layers = (
{
hints = (
{
horizontal = 1;
place = "{1, 72}";
},
{
horizontal = 1;
place = "{627, 72}";
},
{
horizontal = 1;
place = "{337, 72}";
},
{
place = "{84, 72}";
}
);
layerId = "AB75F081-BB78-472F-B186-224F31AB1B09";
paths = (
{
closed = 1;
nodes = (
"257 337 LINE",
"250 340 LINE",
"250 340 OFFCURVE",
"415 359 OFFCURVE",
"415 519 CURVE SMOOTH",
"415 679 OFFCURVE",
"257 701 OFFCURVE",
"257 701 CURVE",
"251 701 LINE",
"96 701 LINE SMOOTH",
"73 701 OFFCURVE",
"60 688 OFFCURVE",
"60 665 CURVE SMOOTH",
"60 38 LINE SMOOTH",
"60 15 OFFCURVE",
"73 2 OFFCURVE",
"96 2 CURVE SMOOTH",
"265 2 LINE SMOOTH",
"302 2 OFFCURVE",
"457 48 OFFCURVE",
"456 204 CURVE",
"456 335 OFFCURVE",
"341 386 OFFCURVE",
"286 403 CURVE SMOOTH",
"263 410 OFFCURVE",
"247 398 OFFCURVE",
"244 374 CURVE SMOOTH",
"241 351 OFFCURVE",
"230 339 OFFCURVE",
"272 332 CURVE SMOOTH",
"312 325 OFFCURVE",
"384 283 OFFCURVE",
"384 204 CURVE SMOOTH",
"384 100 OFFCURVE",
"290 74 OFFCURVE",
"265 74 CURVE SMOOTH",
"132 74 LINE",
"132 629 LINE",
"248 629 LINE",
"262 626 OFFCURVE",
"343 607 OFFCURVE",
"343 519 CURVE SMOOTH",
"343 431 OFFCURVE",
"262 412 OFFCURVE",
"248 409 CURVE",
"141 409 LINE SMOOTH",
"118 409 OFFCURVE",
"105 396 OFFCURVE",
"105 373 CURVE SMOOTH",
"105 350 OFFCURVE",
"118 337 OFFCURVE",
"141 337 CURVE SMOOTH"
);
}
);
width = 516;
}
);
unicode = 0042;
},
{
glyphname = C;
lastChange = "2016-09-22 22:57:21 +0000";
layers = (
{
layerId = "AB75F081-BB78-472F-B186-224F31AB1B09";
paths = (
{
closed = 1;
nodes = (
"381 115 OFFCURVE",
"328 72 OFFCURVE",
"265 72 CURVE SMOOTH",
"192 72 OFFCURVE",
"132 131 OFFCURVE",
"132 205 CURVE SMOOTH",
"132 495 LINE SMOOTH",
"132 568 OFFCURVE",
"192 628 OFFCURVE",
"265 628 CURVE SMOOTH",
"328 628 OFFCURVE",
"381 584 OFFCURVE",
"394 526 CURVE",
"399 508 OFFCURVE",
"411 495 OFFCURVE",
"429 495 CURVE SMOOTH",
"434 495 LINE SMOOTH",
"454 495 OFFCURVE",
"471 513 OFFCURVE",
"466 536 CURVE SMOOTH",
"447 629 OFFCURVE",
"364 700 OFFCURVE",
"265 700 CURVE SMOOTH",
"152 700 OFFCURVE",
"60 608 OFFCURVE",
"60 495 CURVE SMOOTH",
"60 205 LINE SMOOTH",
"60 91 OFFCURVE",
"152 0 OFFCURVE",
"265 0 CURVE SMOOTH",
"364 0 OFFCURVE",
"447 70 OFFCURVE",
"466 164 CURVE SMOOTH",
"471 187 OFFCURVE",
"452 205 OFFCURVE",
"429 205 CURVE SMOOTH",
"411 205 OFFCURVE",
"399 192 OFFCURVE",
"395 174 CURVE SMOOTH"
);
}
);
width = 527;
}
);
unicode = 0043;
},
{
glyphname = D;
lastChange = "2016-09-22 22:57:21 +0000";
layers = (
{
layerId = "AB75F081-BB78-472F-B186-224F31AB1B09";
paths = (
{
closed = 1;
nodes = (
"271 630 LINE SMOOTH",
"331 630 OFFCURVE",
"379 582 OFFCURVE",
"379 521 CURVE SMOOTH",
"379 182 LINE SMOOTH",
"379 122 OFFCURVE",
"331 74 OFFCURVE",
"271 74 CURVE SMOOTH",
"132 74 LINE",
"132 630 LINE"
);
},
{
closed = 1;
nodes = (
"60 38 LINE SMOOTH",
"60 15 OFFCURVE",
"73 2 OFFCURVE",
"96 2 CURVE SMOOTH",
"271 2 LINE SMOOTH",
"371 2 OFFCURVE",
"451 82 OFFCURVE",
"451 182 CURVE SMOOTH",
"451 521 LINE SMOOTH",
"451 621 OFFCURVE",
"371 702 OFFCURVE",
"271 702 CURVE SMOOTH",
"96 702 LINE SMOOTH",
"73 702 OFFCURVE",
"60 689 OFFCURVE",
"60 666 CURVE SMOOTH"
);
}
);
width = 511;
}
);
unicode = 0044;
},
{
glyphname = E;
lastChange = "2016-09-22 22:57:21 +0000";
layers = (
{
hints = (
{
horizontal = 1;
origin = "{0, 7}";
},
{
horizontal = 1;
place = "{317, 72}";
},
{
horizontal = 1;
origin = "{0, 16}";
},
{
origin = "{0, 4}";
}
);
layerId = "AB75F081-BB78-472F-B186-224F31AB1B09";
paths = (
{
closed = 1;
nodes = (
"96 702 LINE SMOOTH",
"73 702 OFFCURVE",
"60 689 OFFCURVE",
"60 666 CURVE SMOOTH",
"60 38 LINE SMOOTH",
"60 15 OFFCURVE",
"73 2 OFFCURVE",
"96 2 CURVE SMOOTH",
"368 2 LINE SMOOTH",
"391 2 OFFCURVE",
"404 15 OFFCURVE",
"404 38 CURVE SMOOTH",
"404 61 OFFCURVE",
"391 74 OFFCURVE",
"368 74 CURVE SMOOTH",
"132 74 LINE",
"132 630 LINE",
"368 630 LINE SMOOTH",
"391 630 OFFCURVE",
"404 643 OFFCURVE",
"404 666 CURVE SMOOTH",
"404 689 OFFCURVE",
"391 702 OFFCURVE",
"368 702 CURVE SMOOTH"
);
},
{
closed = 1;
nodes = (
"132 388 LINE SMOOTH",
"109 388 OFFCURVE",
"96 375 OFFCURVE",
"96 352 CURVE SMOOTH",
"96 329 OFFCURVE",
"109 316 OFFCURVE",
"132 316 CURVE SMOOTH",
"368 316 LINE SMOOTH",
"391 316 OFFCURVE",
"404 329 OFFCURVE",
"404 352 CURVE SMOOTH",
"404 375 OFFCURVE",
"391 388 OFFCURVE",
"368 388 CURVE SMOOTH"
);
}
);
width = 464;
}
);
unicode = 0045;
},
{
glyphname = F;
lastChange = "2016-09-22 22:57:21 +0000";
layers = (
{
hints = (
{
place = "{102, 72}";
},
{
horizontal = 1;
place = "{335, 72}";
},
{
horizontal = 1;
place = "{624, 72}";
}
);
layerId = "AB75F081-BB78-472F-B186-224F31AB1B09";
paths = (
{
closed = 1;
nodes = (
"96 699 LINE SMOOTH",
"73 699 OFFCURVE",
"60 686 OFFCURVE",
"60 663 CURVE SMOOTH",
"60 36 LINE SMOOTH",
"60 15 OFFCURVE",
"76 -1 OFFCURVE",
"96 -1 CURVE SMOOTH",
"116 -1 OFFCURVE",
"132 15 OFFCURVE",
"132 36 CURVE SMOOTH",
"132 627 LINE",
"367 627 LINE SMOOTH",
"388 627 OFFCURVE",
"404 643 OFFCURVE",
"404 663 CURVE SMOOTH",
"404 683 OFFCURVE",
"388 699 OFFCURVE",
"367 699 CURVE SMOOTH"
);
},
{
closed = 1;
nodes = (
"96 405 LINE",
"96 333 LINE",
"367 333 LINE SMOOTH",
"388 333 OFFCURVE",
"404 349 OFFCURVE",
"404 369 CURVE SMOOTH",
"404 389 OFFCURVE",
"388 405 OFFCURVE",
"367 405 CURVE SMOOTH"
);
}
);
width = 464;
}
);
unicode = 0046;
},
{
glyphname = G;
lastChange = "2016-09-22 22:57:21 +0000";
layers = (
{
layerId = "AB75F081-BB78-472F-B186-224F31AB1B09";
paths = (
{
closed = 1;
nodes = (
"426 584 OFFCURVE",
"423 590 OFFCURVE",
"421 595 CURVE SMOOTH",
"395 661 OFFCURVE",
"322 698 OFFCURVE",
"251 698 CURVE SMOOTH",
"146 698 OFFCURVE",
"60 612 OFFCURVE",
"60 507 CURVE SMOOTH",
"60 190 LINE SMOOTH",
"60 85 OFFCURVE",
"146 -1 OFFCURVE",
"251 -1 CURVE SMOOTH",
"357 -1 OFFCURVE",
"442 85 OFFCURVE",
"442 190 CURVE SMOOTH",
"442 347 LINE SMOOTH",
"442 371 OFFCURVE",
"429 383 OFFCURVE",
"406 383 CURVE SMOOTH",
"304 383 LINE SMOOTH",
"281 383 OFFCURVE",
"268 372 OFFCURVE",
"268 348 CURVE SMOOTH",
"268 347 LINE SMOOTH",
"268 324 OFFCURVE",
"281 311 OFFCURVE",
"304 311 CURVE SMOOTH",
"370 312 LINE",
"370 190 LINE SMOOTH",
"370 124 OFFCURVE",
"317 71 OFFCURVE",
"251 71 CURVE SMOOTH",
"186 71 OFFCURVE",
"132 124 OFFCURVE",
"132 190 CURVE SMOOTH",
"132 507 LINE",
"132 573 OFFCURVE",
"186 626 OFFCURVE",
"251 626 CURVE SMOOTH",
"296 626 OFFCURVE",
"343 605 OFFCURVE",
"357 562 CURVE SMOOTH",
"358 559 OFFCURVE",
"360 555 OFFCURVE",
"361 552 CURVE SMOOTH",
"363 545 OFFCURVE",
"377 545 OFFCURVE",
"398 551 CURVE SMOOTH",
"421 558 OFFCURVE",
"432 568 OFFCURVE",
"428 579 CURVE SMOOTH"
);
}
);
width = 502;
}
);
unicode = 0047;
},
{
glyphname = H;
lastChange = "2016-09-22 22:57:21 +0000";
layers = (
{
hints = (
{
place = "{405, 72}";
},
{
horizontal = 1;
place = "{316, 72}";
},
{
place = "{72, 72}";
}
);
layerId = "AB75F081-BB78-472F-B186-224F31AB1B09";
paths = (
{
closed = 1;
nodes = (
"132 664 LINE SMOOTH",
"132 687 OFFCURVE",
"119 700 OFFCURVE",
"96 700 CURVE SMOOTH",
"73 700 OFFCURVE",
"60 687 OFFCURVE",
"60 664 CURVE SMOOTH",
"60 36 LINE SMOOTH",
"60 13 OFFCURVE",
"73 0 OFFCURVE",
"96 0 CURVE SMOOTH",
"119 0 OFFCURVE",
"132 13 OFFCURVE",
"132 36 CURVE SMOOTH"
);
},
{
closed = 1;
nodes = (
"470 664 LINE SMOOTH",
"470 687 OFFCURVE",
"457 700 OFFCURVE",
"434 700 CURVE SMOOTH",
"411 700 OFFCURVE",
"398 687 OFFCURVE",
"398 664 CURVE SMOOTH",
"398 36 LINE SMOOTH",
"398 13 OFFCURVE",
"411 0 OFFCURVE",
"434 0 CURVE SMOOTH",
"457 0 OFFCURVE",
"470 13 OFFCURVE",
"470 36 CURVE SMOOTH"
);
},
{
closed = 1;
nodes = (
"111 386 LINE",
"111 314 LINE",
"419 314 LINE",
"419 386 LINE"
);
}
);
width = 530;
}
);
unicode = 0048;
},
{
glyphname = I;
lastChange = "2016-09-22 23:00:10 +0000";
layers = (
{
layerId = "AB75F081-BB78-472F-B186-224F31AB1B09";
paths = (
{
closed = 1;
nodes = (
"192 664 LINE SMOOTH",
"192 687 OFFCURVE",
"179 700 OFFCURVE",
"156 700 CURVE SMOOTH",
"156 700 LINE SMOOTH",
"133 700 OFFCURVE",
"120 687 OFFCURVE",
"120 664 CURVE SMOOTH",
"120 36 LINE SMOOTH",
"120 13 OFFCURVE",
"133 0 OFFCURVE",
"156 0 CURVE SMOOTH",
"156 0 LINE SMOOTH",
"179 0 OFFCURVE",
"192 13 OFFCURVE",
"192 36 CURVE SMOOTH"
);
}
);
width = 312;
}
);
unicode = 0049;
},
{
glyphname = J;
lastChange = "2016-09-22 22:57:21 +0000";
layers = (
{
hints = (
{
place = "{370, 72}";
}
);
layerId = "AB75F081-BB78-472F-B186-224F31AB1B09";
paths = (
{
closed = 1;
nodes = (
"101 35 OFFCURVE",
"165 -1 OFFCURVE",
"234 -2 CURVE SMOOTH",
"344 -4 OFFCURVE",
"432 88 OFFCURVE",
"432 196 CURVE",
"431 662 LINE SMOOTH",
"431 686 OFFCURVE",
"418 698 OFFCURVE",
"395 698 CURVE SMOOTH",
"372 698 OFFCURVE",
"359 686 OFFCURVE",
"359 662 CURVE SMOOTH",
"360 196 LINE SMOOTH",
"360 127 OFFCURVE",
"304 72 OFFCURVE",
"234 70 CURVE SMOOTH",
"193 69 OFFCURVE",
"156 90 OFFCURVE",
"133 122 CURVE SMOOTH",
"119 141 OFFCURVE",
"104 150 OFFCURVE",
"85 140 CURVE SMOOTH",
"83 139 LINE SMOOTH",
"63 129 OFFCURVE",
"53 113 OFFCURVE",
"66 92 CURVE SMOOTH"
);
}
);
width = 492;
}
);
unicode = 004A;
},
{
glyphname = K;
lastChange = "2016-09-22 22:57:21 +0000";
layers = (
{
hints = (
{
place = "{80, 72}";
}
);
layerId = "AB75F081-BB78-472F-B186-224F31AB1B09";
paths = (
{
closed = 1;
nodes = (
"132 664 LINE SMOOTH",
"132 687 OFFCURVE",
"119 700 OFFCURVE",
"96 700 CURVE SMOOTH",
"73 700 OFFCURVE",
"60 687 OFFCURVE",
"60 664 CURVE SMOOTH",
"60 36 LINE SMOOTH",
"60 13 OFFCURVE",
"73 0 OFFCURVE",
"96 0 CURVE SMOOTH",
"119 0 OFFCURVE",
"132 13 OFFCURVE",
"132 36 CURVE SMOOTH"
);
},
{
closed = 1;
nodes = (
"198 350 LINE",
"431 639 LINE SMOOTH",
"446 657 OFFCURVE",
"442 676 OFFCURVE",
"426 690 CURVE SMOOTH",
"408 705 OFFCURVE",
"390 703 OFFCURVE",
"375 685 CURVE SMOOTH",
"105 350 LINE",
"383 13 LINE SMOOTH",
"398 -5 OFFCURVE",
"416 -7 OFFCURVE",
"434 8 CURVE SMOOTH",
"452 23 OFFCURVE",
"454 41 OFFCURVE",
"439 59 CURVE SMOOTH"
);
}
);
width = 509;
}
);
unicode = 004B;
},
{
glyphname = L;
lastChange = "2016-09-22 22:57:21 +0000";
layers = (
{
hints = (
{
place = "{82, 72}";
},
{
horizontal = 1;
place = "{1, 72}";
}
);
layerId = "AB75F081-BB78-472F-B186-224F31AB1B09";
paths = (
{
closed = 1;
nodes = (
"132 72 LINE",
"132 664 LINE SMOOTH",
"132 687 OFFCURVE",
"119 700 OFFCURVE",
"96 700 CURVE SMOOTH",
"73 700 OFFCURVE",
"60 687 OFFCURVE",
"60 664 CURVE SMOOTH",
"60 36 LINE SMOOTH",
"60 13 OFFCURVE",
"73 0 OFFCURVE",
"96 0 CURVE SMOOTH",
"378 0 LINE SMOOTH",
"401 0 OFFCURVE",
"414 13 OFFCURVE",
"414 36 CURVE SMOOTH",
"414 59 OFFCURVE",
"401 72 OFFCURVE",
"378 72 CURVE SMOOTH"
);
}
);
width = 474;
}
);
unicode = 004C;
},
{
glyphname = M;
lastChange = "2016-09-22 22:57:21 +0000";
layers = (
{
hints = (
{
place = "{80, 72}";
},
{
place = "{507, 72}";
}
);
layerId = "AB75F081-BB78-472F-B186-224F31AB1B09";
paths = (
{
closed = 1;
nodes = (
"560 665 LINE SMOOTH",
"560 688 OFFCURVE",
"549 701 OFFCURVE",
"530 701 CURVE SMOOTH",
"510 701 OFFCURVE",
"496 692 OFFCURVE",
"489 672 CURVE SMOOTH",
"310 158 LINE",
"131 672 LINE SMOOTH",
"124 692 OFFCURVE",
"111 701 OFFCURVE",
"91 701 CURVE SMOOTH",
"72 701 OFFCURVE",
"60 688 OFFCURVE",
"60 665 CURVE SMOOTH",
"60 36 LINE SMOOTH",
"60 13 OFFCURVE",
"73 0 OFFCURVE",
"96 0 CURVE SMOOTH",
"119 0 OFFCURVE",
"132 13 OFFCURVE",
"132 36 CURVE SMOOTH",
"132 446 LINE",
"287 24 LINE SMOOTH",
"299 -9 OFFCURVE",
"321 -9 OFFCURVE",
"333 24 CURVE SMOOTH",
"488 446 LINE",
"488 36 LINE SMOOTH",
"488 13 OFFCURVE",
"501 0 OFFCURVE",
"524 0 CURVE SMOOTH",
"547 0 OFFCURVE",
"560 13 OFFCURVE",
"560 36 CURVE SMOOTH"
);
}
);
width = 620;
}
);
unicode = 004D;
},
{
glyphname = N;
lastChange = "2016-09-22 22:57:21 +0000";
layers = (
{
hints = (
{
place = "{74, 72}";
},
{
place = "{405, 72}";
}
);
layerId = "AB75F081-BB78-472F-B186-224F31AB1B09";
paths = (
{
closed = 1;
nodes = (
"390 172 LINE",
"145 674 LINE SMOOTH",
"136 692 OFFCURVE",
"123 700 OFFCURVE",
"103 700 CURVE SMOOTH",
"96 700 LINE SMOOTH",
"73 700 OFFCURVE",
"60 687 OFFCURVE",
"60 664 CURVE SMOOTH",
"60 36 LINE SMOOTH",
"60 13 OFFCURVE",
"73 0 OFFCURVE",
"96 0 CURVE SMOOTH",
"119 0 OFFCURVE",
"132 13 OFFCURVE",
"132 36 CURVE SMOOTH",
"132 528 LINE",
"377 26 LINE SMOOTH",
"386 7 OFFCURVE",
"401 0 OFFCURVE",
"426 0 CURVE SMOOTH",
"449 0 OFFCURVE",
"462 13 OFFCURVE",
"462 36 CURVE SMOOTH",
"462 664 LINE SMOOTH",
"462 687 OFFCURVE",
"449 700 OFFCURVE",
"426 700 CURVE SMOOTH",
"403 700 OFFCURVE",
"390 687 OFFCURVE",
"390 664 CURVE SMOOTH"
);
}
);
width = 522;
}
);
unicode = 004E;
},
{
glyphname = O;
lastChange = "2016-09-22 22:57:21 +0000";
layers = (
{
layerId = "AB75F081-BB78-472F-B186-224F31AB1B09";
paths = (
{
closed = 1;
nodes = (
"132 568 OFFCURVE",
"192 628 OFFCURVE",
"265 628 CURVE",
"339 628 OFFCURVE",
"398 568 OFFCURVE",
"398 495 CURVE SMOOTH",
"398 205 LINE SMOOTH",
"398 131 OFFCURVE",
"339 72 OFFCURVE",
"265 72 CURVE",
"192 72 OFFCURVE",
"132 131 OFFCURVE",
"132 205 CURVE",
"132 495 LINE"
);
},
{
closed = 1;
nodes = (
"60 205 LINE SMOOTH",
"60 91 OFFCURVE",
"152 0 OFFCURVE",
"265 0 CURVE",
"378 0 OFFCURVE",
"470 91 OFFCURVE",
"470 205 CURVE SMOOTH",
"470 495 LINE",
"470 608 OFFCURVE",
"378 700 OFFCURVE",
"265 700 CURVE",
"152 700 OFFCURVE",
"60 608 OFFCURVE",
"60 495 CURVE SMOOTH"
);
}
);
width = 530;
}
);
unicode = 004F;
},
{
glyphname = P;
lastChange = "2016-09-22 22:57:21 +0000";
layers = (
{
hints = (
{
place = "{87, 72}";
}
);
layerId = "AB75F081-BB78-472F-B186-224F31AB1B09";
paths = (
{
closed = 1;
nodes = (
"253 326 LINE SMOOTH",
"288 326 OFFCURVE",
"435 354 OFFCURVE",
"435 513 CURVE SMOOTH",
"435 672 OFFCURVE",
"286 700 OFFCURVE",
"253 700 CURVE SMOOTH",
"96 700 LINE SMOOTH",
"73 700 OFFCURVE",
"60 687 OFFCURVE",
"60 664 CURVE SMOOTH",
"60 36 LINE SMOOTH",
"60 13 OFFCURVE",
"73 0 OFFCURVE",
"96 0 CURVE SMOOTH",
"119 0 OFFCURVE",
"132 13 OFFCURVE",
"132 36 CURVE SMOOTH",
"132 628 LINE",
"253 628 LINE SMOOTH",
"279 628 OFFCURVE",
"363 612 OFFCURVE",
"363 513 CURVE SMOOTH",
"363 414 OFFCURVE",
"281 398 OFFCURVE",
"253 398 CURVE SMOOTH",
"117 398 LINE",
"117 326 LINE"
);
}
);
width = 495;
}
);
unicode = 0050;
},
{
glyphname = Q;
lastChange = "2016-09-22 22:57:21 +0000";
layers = (
{
hints = (
{
horizontal = 1;
origin = "{1, 3}";
target = "{0, 9}";
},
{
horizontal = 1;
origin = "{0, 2}";
target = "{1, 10}";
},
{
place = "{61, 72}";
},
{
place = "{399, 72}";
}
);
layerId = "AB75F081-BB78-472F-B186-224F31AB1B09";
paths = (
{
closed = 1;
nodes = (
"132 569 OFFCURVE",
"192 628 OFFCURVE",
"265 628 CURVE SMOOTH",
"338 628 OFFCURVE",
"398 569 OFFCURVE",
"398 495 CURVE SMOOTH",
"398 205 LINE SMOOTH",
"398 132 OFFCURVE",
"338 72 OFFCURVE",
"265 72 CURVE SMOOTH",
"192 72 OFFCURVE",
"132 132 OFFCURVE",
"132 205 CURVE SMOOTH",
"132 495 LINE SMOOTH"
);
},
{
closed = 1;
nodes = (
"60 205 LINE SMOOTH",
"60 92 OFFCURVE",
"152 0 OFFCURVE",
"265 0 CURVE SMOOTH",
"378 0 OFFCURVE",
"470 92 OFFCURVE",
"470 205 CURVE SMOOTH",
"470 495 LINE SMOOTH",
"470 608 OFFCURVE",
"378 700 OFFCURVE",
"265 700 CURVE SMOOTH",
"152 700 OFFCURVE",
"60 608 OFFCURVE",
"60 495 CURVE SMOOTH"
);
},
{
closed = 1;
nodes = (
"445 73 OFFCURVE",
"436 71 OFFCURVE",
"426 72 CURVE SMOOTH",
"405 74 OFFCURVE",
"397 79 OFFCURVE",
"391 94 CURVE",
"325 67 LINE",
"341 26 OFFCURVE",
"374 3 OFFCURVE",
"422 0 CURVE SMOOTH",
"457 -2 OFFCURVE",
"488 10 OFFCURVE",
"511 31 CURVE SMOOTH",
"529 48 OFFCURVE",
"522 69 OFFCURVE",
"500 80 CURVE SMOOTH",
"496 82 LINE SMOOTH",
"478 91 OFFCURVE",
"468 86 OFFCURVE",
"452 77 CURVE SMOOTH"
);
}
);
width = 581;
}
);
unicode = 0051;
},
{
glyphname = R;
lastChange = "2016-09-22 22:57:21 +0000";
layers = (
{
hints = (
{
place = "{79, 72}";
}
);
layerId = "AB75F081-BB78-472F-B186-224F31AB1B09";
paths = (
{
closed = 1;
nodes = (
"253 326 LINE SMOOTH",
"288 326 OFFCURVE",
"435 354 OFFCURVE",
"435 513 CURVE SMOOTH",
"435 672 OFFCURVE",
"286 700 OFFCURVE",
"253 700 CURVE SMOOTH",
"96 700 LINE SMOOTH",
"73 700 OFFCURVE",
"60 687 OFFCURVE",
"60 664 CURVE SMOOTH",
"60 34 LINE SMOOTH",
"60 10 OFFCURVE",
"73 -2 OFFCURVE",
"96 -2 CURVE SMOOTH",
"119 -2 OFFCURVE",
"132 10 OFFCURVE",
"132 34 CURVE SMOOTH",
"132 628 LINE",
"253 628 LINE SMOOTH",
"279 628 OFFCURVE",
"363 612 OFFCURVE",
"363 513 CURVE SMOOTH",
"363 414 OFFCURVE",
"281 398 OFFCURVE",
"253 398 CURVE SMOOTH",
"117 398 LINE",
"117 326 LINE"
);
},
{
closed = 1;
nodes = (
"310 371 LINE",
"244 343 LINE",
"384 20 LINE SMOOTH",
"393 -1 OFFCURVE",
"410 -8 OFFCURVE",
"431 1 CURVE SMOOTH",
"452 10 OFFCURVE",
"459 27 OFFCURVE",
"450 48 CURVE SMOOTH"
);
}
);
width = 514;
}
);
unicode = 0052;
},
{
glyphname = S;
lastChange = "2016-09-22 22:57:21 +0000";
layers = (
{
background = {
paths = (
{
closed = 0;
nodes = (
"101 187 LINE",
"101 94 OFFCURVE",
"176 18 OFFCURVE",
"270 18 CURVE SMOOTH",
"363 18 OFFCURVE",
"438 94 OFFCURVE",
"438 187 CURVE SMOOTH",
"438 280 OFFCURVE",
"364 357 OFFCURVE",
"271 357 CURVE SMOOTH",
"182 357 OFFCURVE",
"110 429 OFFCURVE",
"110 518 CURVE SMOOTH",
"110 607 OFFCURVE",
"182 679 OFFCURVE",
"271 679 CURVE SMOOTH",
"360 679 OFFCURVE",
"432 606 OFFCURVE",
"432 518 CURVE SMOOTH"
);
}
);
};
hints = (
{
horizontal = 1;
origin = "{0, 36}";
target = "{0, 17}";
},
{
horizontal = 1;
origin = "{0, 48}";
target = "{0, 5}";
},
{
place = "{85, 72}";
},
{
place = "{397, 72}";
}
);
layerId = "AB75F081-BB78-472F-B186-224F31AB1B09";
paths = (
{
closed = 1;
nodes = (
"434 574 OFFCURVE",
"424 596 OFFCURVE",
"411 615 CURVE SMOOTH",
"376 666 OFFCURVE",
"318 700 OFFCURVE",
"254 700 CURVE SMOOTH",
"150 700 OFFCURVE",
"65 615 OFFCURVE",
"65 511 CURVE SMOOTH",
"65 407 OFFCURVE",
"153 351 OFFCURVE",
"254 322 CURVE SMOOTH",
"316 304 OFFCURVE",
"377 266 OFFCURVE",
"377 196 CURVE SMOOTH",
"377 126 OFFCURVE",
"322 71 OFFCURVE",
"253 71 CURVE SMOOTH",
"209 71 OFFCURVE",
"166 96 OFFCURVE",
"143 138 CURVE SMOOTH",
"138 147 OFFCURVE",
"134 156 OFFCURVE",
"132 166 CURVE SMOOTH",
"128 184 OFFCURVE",
"116 196 OFFCURVE",
"98 196 CURVE SMOOTH",
"93 196 LINE SMOOTH",
"73 196 OFFCURVE",
"56 178 OFFCURVE",
"61 155 CURVE SMOOTH",
"65 136 OFFCURVE",
"72 118 OFFCURVE",
"81 102 CURVE SMOOTH",
"117 39 OFFCURVE",
"183 -1 OFFCURVE",
"253 -1 CURVE SMOOTH",
"362 -1 OFFCURVE",
"449 87 OFFCURVE",
"449 196 CURVE SMOOTH",
"449 305 OFFCURVE",
"353 365 OFFCURVE",
"254 394 CURVE SMOOTH",
"189 413 OFFCURVE",
"137 446 OFFCURVE",
"137 511 CURVE SMOOTH",
"137 576 OFFCURVE",
"189 628 OFFCURVE",
"254 628 CURVE SMOOTH",
"294 628 OFFCURVE",
"331 610 OFFCURVE",
"351 577 CURVE SMOOTH",
"359 564 OFFCURVE",
"365 552 OFFCURVE",
"368 540 CURVE SMOOTH",
"372 523 OFFCURVE",
"384 511 OFFCURVE",
"401 511 CURVE SMOOTH",
"408 511 LINE SMOOTH",
"428 511 OFFCURVE",
"444 530 OFFCURVE",
"439 553 CURVE SMOOTH"
);
}
);
width = 509;
}
);
unicode = 0053;
},
{
glyphname = T;
lastChange = "2016-09-22 22:57:21 +0000";
layers = (
{
layerId = "AB75F081-BB78-472F-B186-224F31AB1B09";
paths = (
{
closed = 1;
nodes = (
"313 664 LINE",
"241 664 LINE",
"241 37 LINE SMOOTH",
"241 15 OFFCURVE",
"257 0 OFFCURVE",
"277 0 CURVE SMOOTH",
"297 0 OFFCURVE",
"313 15 OFFCURVE",
"313 37 CURVE SMOOTH"
);
},
{
closed = 1;
nodes = (
"97 700 LINE SMOOTH",
"76 700 OFFCURVE",
"60 684 OFFCURVE",
"60 664 CURVE SMOOTH",
"60 644 OFFCURVE",
"76 628 OFFCURVE",
"97 628 CURVE SMOOTH",
"457 629 LINE SMOOTH",
"478 629 OFFCURVE",
"494 645 OFFCURVE",
"494 665 CURVE SMOOTH",
"494 685 OFFCURVE",
"478 701 OFFCURVE",
"457 701 CURVE SMOOTH"
);
}
);
width = 554;
}
);
unicode = 0054;
},
{
glyphname = U;
lastChange = "2016-09-22 22:57:21 +0000";
layers = (
{
hints = (
{
horizontal = 1;
origin = "{0, 6}";
target = "{0, 20}";
},
{
place = "{70, 72}";
},
{
place = "{408, 72}";
}
);
layerId = "AB75F081-BB78-472F-B186-224F31AB1B09";
paths = (
{
closed = 1;
nodes = (
"73 700 OFFCURVE",
"60 688 OFFCURVE",
"60 664 CURVE SMOOTH",
"60 205 LINE SMOOTH",
"60 92 OFFCURVE",
"152 0 OFFCURVE",
"265 0 CURVE SMOOTH",
"378 0 OFFCURVE",
"470 92 OFFCURVE",
"470 205 CURVE",
"470 664 LINE SMOOTH",
"470 688 OFFCURVE",
"457 700 OFFCURVE",
"434 700 CURVE SMOOTH",
"411 700 OFFCURVE",
"398 688 OFFCURVE",
"398 664 CURVE SMOOTH",
"398 205 LINE SMOOTH",
"398 131 OFFCURVE",
"338 72 OFFCURVE",
"265 72 CURVE SMOOTH",
"191 72 OFFCURVE",
"132 132 OFFCURVE",
"132 205 CURVE",
"132 664 LINE SMOOTH",
"132 688 OFFCURVE",
"119 700 OFFCURVE",
"96 700 CURVE SMOOTH"
);
}
);
width = 530;
}
);
unicode = 0055;
},
{
glyphname = V;
lastChange = "2016-09-22 22:57:21 +0000";
layers = (
{
layerId = "AB75F081-BB78-472F-B186-224F31AB1B09";
paths = (
{
closed = 1;
nodes = (
"262 184 LINE",
"131 666 LINE SMOOTH",
"125 688 OFFCURVE",
"109 697 OFFCURVE",
"87 691 CURVE SMOOTH",
"65 685 OFFCURVE",
"56 669 OFFCURVE",
"62 647 CURVE SMOOTH",
"230 31 LINE SMOOTH",
"235 11 OFFCURVE",
"247 0 OFFCURVE",
"264 0 CURVE SMOOTH",
"281 0 OFFCURVE",
"292 11 OFFCURVE",
"297 31 CURVE SMOOTH",
"456 647 LINE SMOOTH",
"462 669 OFFCURVE",
"452 685 OFFCURVE",
"430 691 CURVE SMOOTH",
"408 697 OFFCURVE",
"392 687 OFFCURVE",
"386 665 CURVE SMOOTH"
);
}
);
width = 518;
}
);
unicode = 0056;
},
{
glyphname = W;
lastChange = "2016-09-22 22:57:21 +0000";
layers = (
{
layerId = "AB75F081-BB78-472F-B186-224F31AB1B09";
paths = (
{
closed = 1;
nodes = (
"462 212 LINE",
"375 668 LINE SMOOTH",
"371 689 OFFCURVE",
"359 701 OFFCURVE",
"340 701 CURVE SMOOTH",
"321 701 OFFCURVE",
"309 689 OFFCURVE",
"305 668 CURVE SMOOTH",
"218 212 LINE",
"132 665 LINE SMOOTH",
"128 688 OFFCURVE",
"113 698 OFFCURVE",
"90 694 CURVE SMOOTH",
"67 690 OFFCURVE",
"56 675 OFFCURVE",
"61 652 CURVE SMOOTH",
"182 33 LINE SMOOTH",
"186 12 OFFCURVE",
"198 0 OFFCURVE",
"218 0 CURVE SMOOTH",
"237 0 OFFCURVE",
"249 12 OFFCURVE",
"253 33 CURVE SMOOTH",
"340 448 LINE",
"429 33 LINE SMOOTH",
"433 12 OFFCURVE",
"445 0 OFFCURVE",
"465 0 CURVE SMOOTH",
"484 0 OFFCURVE",
"496 12 OFFCURVE",
"500 33 CURVE SMOOTH",
"620 652 LINE SMOOTH",
"625 676 OFFCURVE",
"613 690 OFFCURVE",
"590 694 CURVE SMOOTH",
"567 698 OFFCURVE",
"553 688 OFFCURVE",
"549 665 CURVE SMOOTH"
);
}
);
width = 681;
}
);
unicode = 0057;
},
{
glyphname = X;
lastChange = "2016-09-22 22:57:21 +0000";
layers = (
{
layerId = "AB75F081-BB78-472F-B186-224F31AB1B09";
paths = (
{
closed = 1;
nodes = (
"457 643 LINE SMOOTH",
"467 662 OFFCURVE",
"461 683 OFFCURVE",
"443 693 CURVE SMOOTH",
"425 703 OFFCURVE",
"404 697 OFFCURVE",
"394 678 CURVE SMOOTH",
"65 57 LINE SMOOTH",
"55 38 OFFCURVE",
"61 17 OFFCURVE",
"79 7 CURVE SMOOTH",
"97 -3 OFFCURVE",
"117 4 OFFCURVE",
"127 22 CURVE SMOOTH"
);
},
{
closed = 1;
nodes = (
"128 678 LINE SMOOTH",
"118 696 OFFCURVE",
"97 703 OFFCURVE",
"79 692 CURVE SMOOTH",
"60 681 OFFCURVE",
"55 660 OFFCURVE",
"65 642 CURVE SMOOTH",
"406 22 LINE SMOOTH",
"416 4 OFFCURVE",
"437 -3 OFFCURVE",
"456 8 CURVE SMOOTH",
"474 18 OFFCURVE",
"479 39 OFFCURVE",
"469 57 CURVE SMOOTH"
);
}
);
width = 534;
}
);
unicode = 0058;
},
{
glyphname = Y;
lastChange = "2016-09-22 22:57:21 +0000";
layers = (
{
hints = (
{
horizontal = 1;
place = "{-2, 69857}";
},
{
place = "{243, 72}";
}
);
layerId = "AB75F081-BB78-472F-B186-224F31AB1B09";
paths = (
{
closed = 1;
nodes = (
"423 702 OFFCURVE",
"402 695 OFFCURVE",
"392 677 CURVE SMOOTH",
"263 434 LINE",
"127 678 LINE SMOOTH",
"117 696 OFFCURVE",
"96 702 OFFCURVE",
"78 692 CURVE SMOOTH",
"60 682 OFFCURVE",
"55 660 OFFCURVE",
"65 642 CURVE SMOOTH",
"228 348 LINE",
"228 35 LINE SMOOTH",
"228 13 OFFCURVE",
"244 -2 OFFCURVE",
"264 -2 CURVE SMOOTH",
"284 -2 OFFCURVE",
"300 13 OFFCURVE",
"300 35 CURVE SMOOTH",
"300 348 LINE",
"455 642 LINE SMOOTH",
"465 661 OFFCURVE",
"459 682 OFFCURVE",
"441 692 CURVE SMOOTH"
);
}
);
width = 520;
}
);
unicode = 0059;
},
{
glyphname = Z;
lastChange = "2016-09-22 22:57:21 +0000";
layers = (
{
hints = (
{
horizontal = 1;
origin = "{0, 16}";
target = "{0, 23}";
},
{
horizontal = 1;
origin = "{0, 11}";
target = "{0, 5}";
}
);
layerId = "AB75F081-BB78-472F-B186-224F31AB1B09";
paths = (
{
closed = 1;
nodes = (
"151 72 LINE",
"421 634 LINE SMOOTH",
"437 666 OFFCURVE",
"418 700 OFFCURVE",
"382 700 CURVE SMOOTH",
"108 700 LINE SMOOTH",
"87 700 OFFCURVE",
"71 684 OFFCURVE",
"71 664 CURVE SMOOTH",
"71 644 OFFCURVE",
"87 628 OFFCURVE",
"108 628 CURVE SMOOTH",
"335 628 LINE",
"66 66 LINE SMOOTH",
"51 34 OFFCURVE",
"69 0 OFFCURVE",
"105 0 CURVE SMOOTH",
"378 1 LINE SMOOTH",
"399 1 OFFCURVE",
"415 16 OFFCURVE",
"415 38 CURVE SMOOTH",
"415 58 OFFCURVE",
"399 73 OFFCURVE",
"378 73 CURVE SMOOTH"
);
}
);
width = 486;
}
);
unicode = 005A;
},
{
glyphname = a;
lastChange = "2016-09-22 22:57:21 +0000";
layers = (
{
hints = (
{
horizontal = 1;
place = "{151, 72}";
}
);
layerId = "AB75F081-BB78-472F-B186-224F31AB1B09";
paths = (
{
closed = 1;
nodes = (
"322 686 LINE SMOOTH",
"316 703 OFFCURVE",
"282 703 OFFCURVE",
"276 686 CURVE SMOOTH",
"63 52 LINE SMOOTH",
"55 30 OFFCURVE",
"64 14 OFFCURVE",
"86 6 CURVE SMOOTH",
"108 -2 OFFCURVE",
"125 7 OFFCURVE",
"132 29 CURVE SMOOTH",
"299 529 LINE",
"465 29 LINE SMOOTH",
"472 7 OFFCURVE",
"488 -2 OFFCURVE",
"511 6 CURVE SMOOTH",
"534 14 OFFCURVE",
"541 30 OFFCURVE",
"534 52 CURVE SMOOTH"
);
},
{
closed = 1;
nodes = (
"176 224 LINE SMOOTH",
"153 224 OFFCURVE",
"140 211 OFFCURVE",
"140 188 CURVE SMOOTH",
"140 165 OFFCURVE",
"153 152 OFFCURVE",
"176 152 CURVE SMOOTH",
"422 152 LINE SMOOTH",
"445 152 OFFCURVE",
"458 165 OFFCURVE",
"458 188 CURVE SMOOTH",
"458 211 OFFCURVE",
"445 224 OFFCURVE",
"422 224 CURVE SMOOTH"
);
}
);
width = 597;
}
);
unicode = 0061;
},
{
glyphname = b;
lastChange = "2016-09-22 22:57:21 +0000";
layers = (
{
hints = (
{
horizontal = 1;
place = "{1, 72}";
},
{
horizontal = 1;
place = "{627, 72}";
},
{
horizontal = 1;
place = "{337, 72}";
},
{
place = "{84, 72}";
}
);
layerId = "AB75F081-BB78-472F-B186-224F31AB1B09";
paths = (
{
closed = 1;
nodes = (
"257 337 LINE",
"250 340 LINE",
"250 340 OFFCURVE",
"415 359 OFFCURVE",
"415 519 CURVE SMOOTH",
"415 679 OFFCURVE",
"257 701 OFFCURVE",
"257 701 CURVE",
"251 701 LINE",
"96 701 LINE SMOOTH",
"73 701 OFFCURVE",
"60 688 OFFCURVE",
"60 665 CURVE SMOOTH",
"60 38 LINE SMOOTH",
"60 15 OFFCURVE",
"73 2 OFFCURVE",
"96 2 CURVE SMOOTH",
"265 2 LINE SMOOTH",
"302 2 OFFCURVE",
"457 48 OFFCURVE",
"456 204 CURVE",
"456 335 OFFCURVE",
"341 386 OFFCURVE",
"286 403 CURVE SMOOTH",
"263 410 OFFCURVE",
"247 398 OFFCURVE",
"244 374 CURVE SMOOTH",
"241 351 OFFCURVE",
"230 339 OFFCURVE",
"272 332 CURVE SMOOTH",
"312 325 OFFCURVE",
"384 283 OFFCURVE",
"384 204 CURVE SMOOTH",
"384 100 OFFCURVE",
"290 74 OFFCURVE",
"265 74 CURVE SMOOTH",
"132 74 LINE",
"132 629 LINE",
"248 629 LINE",
"262 626 OFFCURVE",
"343 607 OFFCURVE",
"343 519 CURVE SMOOTH",
"343 431 OFFCURVE",
"262 412 OFFCURVE",
"248 409 CURVE",
"141 409 LINE SMOOTH",
"118 409 OFFCURVE",
"105 396 OFFCURVE",
"105 373 CURVE SMOOTH",
"105 350 OFFCURVE",
"118 337 OFFCURVE",
"141 337 CURVE SMOOTH"
);
}
);
width = 516;
}
);
unicode = 0062;
},
{
glyphname = c;
lastChange = "2016-09-22 22:57:21 +0000";
layers = (
{
layerId = "AB75F081-BB78-472F-B186-224F31AB1B09";
paths = (
{
closed = 1;
nodes = (
"381 115 OFFCURVE",
"328 72 OFFCURVE",
"265 72 CURVE SMOOTH",
"192 72 OFFCURVE",
"132 131 OFFCURVE",
"132 205 CURVE SMOOTH",
"132 495 LINE SMOOTH",
"132 568 OFFCURVE",
"192 628 OFFCURVE",
"265 628 CURVE SMOOTH",
"328 628 OFFCURVE",
"381 584 OFFCURVE",
"394 526 CURVE",
"399 508 OFFCURVE",
"411 495 OFFCURVE",
"429 495 CURVE SMOOTH",
"434 495 LINE SMOOTH",
"454 495 OFFCURVE",
"471 513 OFFCURVE",
"466 536 CURVE SMOOTH",
"447 629 OFFCURVE",
"364 700 OFFCURVE",
"265 700 CURVE SMOOTH",
"152 700 OFFCURVE",
"60 608 OFFCURVE",
"60 495 CURVE SMOOTH",
"60 205 LINE SMOOTH",
"60 91 OFFCURVE",
"152 0 OFFCURVE",
"265 0 CURVE SMOOTH",
"364 0 OFFCURVE",
"447 70 OFFCURVE",
"466 164 CURVE SMOOTH",
"471 187 OFFCURVE",
"452 205 OFFCURVE",
"429 205 CURVE SMOOTH",
"411 205 OFFCURVE",
"399 192 OFFCURVE",
"395 174 CURVE SMOOTH"
);
}
);
width = 527;
}
);
unicode = 0063;
},
{
glyphname = d;
lastChange = "2016-09-22 22:57:21 +0000";
layers = (
{
layerId = "AB75F081-BB78-472F-B186-224F31AB1B09";
paths = (
{
closed = 1;
nodes = (
"271 630 LINE SMOOTH",
"331 630 OFFCURVE",
"379 582 OFFCURVE",
"379 521 CURVE SMOOTH",
"379 182 LINE SMOOTH",
"379 122 OFFCURVE",
"331 74 OFFCURVE",
"271 74 CURVE SMOOTH",
"132 74 LINE",
"132 630 LINE"
);
},
{
closed = 1;
nodes = (
"60 38 LINE SMOOTH",
"60 15 OFFCURVE",
"73 2 OFFCURVE",
"96 2 CURVE SMOOTH",
"271 2 LINE SMOOTH",
"371 2 OFFCURVE",
"451 82 OFFCURVE",
"451 182 CURVE SMOOTH",
"451 521 LINE SMOOTH",
"451 621 OFFCURVE",
"371 702 OFFCURVE",
"271 702 CURVE SMOOTH",
"96 702 LINE SMOOTH",
"73 702 OFFCURVE",
"60 689 OFFCURVE",
"60 666 CURVE SMOOTH"
);
}
);
width = 511;
}
);
unicode = 0064;
},
{
glyphname = e;
lastChange = "2016-09-22 22:57:21 +0000";
layers = (
{
hints = (
{
horizontal = 1;
origin = "{0, 7}";
target = "{0, 0}";
},
{
horizontal = 1;
place = "{317, 72}";
},
{
horizontal = 1;
origin = "{0, 16}";
target = "{0, 0}";
},
{
origin = "{0, 4}";
target = "{0, 0}";
}
);
layerId = "AB75F081-BB78-472F-B186-224F31AB1B09";
paths = (
{
closed = 1;
nodes = (
"96 702 LINE SMOOTH",
"73 702 OFFCURVE",
"60 689 OFFCURVE",
"60 666 CURVE SMOOTH",
"60 38 LINE SMOOTH",
"60 15 OFFCURVE",
"73 2 OFFCURVE",
"96 2 CURVE SMOOTH",
"368 2 LINE SMOOTH",
"391 2 OFFCURVE",
"404 15 OFFCURVE",
"404 38 CURVE SMOOTH",
"404 61 OFFCURVE",
"391 74 OFFCURVE",
"368 74 CURVE SMOOTH",
"132 74 LINE",
"132 630 LINE",
"368 630 LINE SMOOTH",
"391 630 OFFCURVE",
"404 643 OFFCURVE",
"404 666 CURVE SMOOTH",
"404 689 OFFCURVE",
"391 702 OFFCURVE",
"368 702 CURVE SMOOTH"
);
},
{
closed = 1;
nodes = (
"132 388 LINE SMOOTH",
"109 388 OFFCURVE",
"96 375 OFFCURVE",
"96 352 CURVE SMOOTH",
"96 329 OFFCURVE",
"109 316 OFFCURVE",
"132 316 CURVE SMOOTH",
"368 316 LINE SMOOTH",
"391 316 OFFCURVE",
"404 329 OFFCURVE",
"404 352 CURVE SMOOTH",
"404 375 OFFCURVE",
"391 388 OFFCURVE",
"368 388 CURVE SMOOTH"
);
}
);
width = 464;
}
);
unicode = 0065;
},
{
glyphname = f;
lastChange = "2016-09-22 22:57:21 +0000";
layers = (
{
hints = (
{
place = "{102, 72}";
},
{
horizontal = 1;
place = "{335, 72}";
},
{
horizontal = 1;
place = "{624, 72}";
}
);
layerId = "AB75F081-BB78-472F-B186-224F31AB1B09";
paths = (
{
closed = 1;
nodes = (
"96 699 LINE SMOOTH",
"73 699 OFFCURVE",
"60 686 OFFCURVE",
"60 663 CURVE SMOOTH",
"60 36 LINE SMOOTH",
"60 15 OFFCURVE",
"76 -1 OFFCURVE",
"96 -1 CURVE SMOOTH",
"116 -1 OFFCURVE",
"132 15 OFFCURVE",
"132 36 CURVE SMOOTH",
"132 627 LINE",
"367 627 LINE SMOOTH",
"388 627 OFFCURVE",
"404 643 OFFCURVE",
"404 663 CURVE SMOOTH",
"404 683 OFFCURVE",
"388 699 OFFCURVE",
"367 699 CURVE SMOOTH"
);
},
{
closed = 1;
nodes = (
"96 405 LINE",
"96 333 LINE",
"367 333 LINE SMOOTH",
"388 333 OFFCURVE",
"404 349 OFFCURVE",
"404 369 CURVE SMOOTH",
"404 389 OFFCURVE",
"388 405 OFFCURVE",
"367 405 CURVE SMOOTH"
);
}
);
width = 464;
}
);
unicode = 0066;
},
{
glyphname = g;
lastChange = "2016-09-22 22:57:21 +0000";
layers = (
{
layerId = "AB75F081-BB78-472F-B186-224F31AB1B09";
paths = (
{
closed = 1;
nodes = (
"426 584 OFFCURVE",
"423 590 OFFCURVE",
"421 595 CURVE SMOOTH",
"395 661 OFFCURVE",
"322 698 OFFCURVE",
"251 698 CURVE SMOOTH",
"146 698 OFFCURVE",
"60 612 OFFCURVE",
"60 507 CURVE SMOOTH",
"60 190 LINE SMOOTH",
"60 85 OFFCURVE",
"146 -1 OFFCURVE",
"251 -1 CURVE SMOOTH",
"357 -1 OFFCURVE",
"442 85 OFFCURVE",
"442 190 CURVE SMOOTH",
"442 347 LINE SMOOTH",
"442 371 OFFCURVE",
"429 383 OFFCURVE",
"406 383 CURVE SMOOTH",
"304 383 LINE SMOOTH",
"281 383 OFFCURVE",
"268 372 OFFCURVE",
"268 348 CURVE SMOOTH",
"268 347 LINE SMOOTH",
"268 324 OFFCURVE",
"281 311 OFFCURVE",
"304 311 CURVE SMOOTH",
"370 312 LINE",
"370 190 LINE SMOOTH",
"370 124 OFFCURVE",
"317 71 OFFCURVE",
"251 71 CURVE SMOOTH",
"186 71 OFFCURVE",
"132 124 OFFCURVE",
"132 190 CURVE SMOOTH",
"132 507 LINE",
"132 573 OFFCURVE",
"186 626 OFFCURVE",
"251 626 CURVE SMOOTH",
"296 626 OFFCURVE",
"343 605 OFFCURVE",
"357 562 CURVE SMOOTH",
"358 559 OFFCURVE",
"360 555 OFFCURVE",
"361 552 CURVE SMOOTH",
"363 545 OFFCURVE",
"377 545 OFFCURVE",
"398 551 CURVE SMOOTH",
"421 558 OFFCURVE",
"432 568 OFFCURVE",
"428 579 CURVE SMOOTH"
);
}
);
width = 502;
}
);
unicode = 0067;
},
{
glyphname = h;
lastChange = "2016-09-22 22:57:21 +0000";
layers = (
{
hints = (
{
place = "{405, 72}";
},
{
horizontal = 1;
place = "{316, 72}";
},
{
place = "{72, 72}";
}
);
layerId = "AB75F081-BB78-472F-B186-224F31AB1B09";
paths = (
{
closed = 1;
nodes = (
"132 664 LINE SMOOTH",
"132 687 OFFCURVE",
"119 700 OFFCURVE",
"96 700 CURVE SMOOTH",
"73 700 OFFCURVE",
"60 687 OFFCURVE",
"60 664 CURVE SMOOTH",
"60 36 LINE SMOOTH",
"60 13 OFFCURVE",
"73 0 OFFCURVE",
"96 0 CURVE SMOOTH",
"119 0 OFFCURVE",
"132 13 OFFCURVE",
"132 36 CURVE SMOOTH"
);
},
{
closed = 1;
nodes = (
"470 664 LINE SMOOTH",
"470 687 OFFCURVE",
"457 700 OFFCURVE",
"434 700 CURVE SMOOTH",
"411 700 OFFCURVE",
"398 687 OFFCURVE",
"398 664 CURVE SMOOTH",
"398 36 LINE SMOOTH",
"398 13 OFFCURVE",
"411 0 OFFCURVE",
"434 0 CURVE SMOOTH",
"457 0 OFFCURVE",
"470 13 OFFCURVE",
"470 36 CURVE SMOOTH"
);
},
{
closed = 1;
nodes = (
"111 386 LINE",
"111 314 LINE",
"419 314 LINE",
"419 386 LINE"
);
}
);
width = 530;
}
);
unicode = 0068;
},
{
glyphname = i;
lastChange = "2016-09-22 22:59:56 +0000";
layers = (
{
layerId = "AB75F081-BB78-472F-B186-224F31AB1B09";
paths = (
{
closed = 1;
nodes = (
"192 664 LINE SMOOTH",
"192 687 OFFCURVE",
"179 700 OFFCURVE",
"156 700 CURVE SMOOTH",
"156 700 LINE SMOOTH",
"133 700 OFFCURVE",
"120 687 OFFCURVE",
"120 664 CURVE SMOOTH",
"120 36 LINE SMOOTH",
"120 13 OFFCURVE",
"133 0 OFFCURVE",
"156 0 CURVE SMOOTH",
"156 0 LINE SMOOTH",
"179 0 OFFCURVE",
"192 13 OFFCURVE",
"192 36 CURVE SMOOTH"
);
}
);
width = 312;
}
);
leftMetricsKey = I;
rightMetricsKey = I;
unicode = 0069;
},
{
glyphname = j;
lastChange = "2016-09-22 22:57:21 +0000";
layers = (
{
hints = (
{
place = "{370, 72}";
}
);
layerId = "AB75F081-BB78-472F-B186-224F31AB1B09";
paths = (
{
closed = 1;
nodes = (
"101 35 OFFCURVE",
"165 -1 OFFCURVE",
"234 -2 CURVE SMOOTH",
"344 -4 OFFCURVE",
"432 88 OFFCURVE",
"432 196 CURVE",
"431 662 LINE SMOOTH",
"431 686 OFFCURVE",
"418 698 OFFCURVE",
"395 698 CURVE SMOOTH",
"372 698 OFFCURVE",
"359 686 OFFCURVE",
"359 662 CURVE SMOOTH",
"360 196 LINE SMOOTH",
"360 127 OFFCURVE",
"304 72 OFFCURVE",
"234 70 CURVE SMOOTH",
"193 69 OFFCURVE",
"156 90 OFFCURVE",
"133 122 CURVE SMOOTH",
"119 141 OFFCURVE",
"104 150 OFFCURVE",
"85 140 CURVE SMOOTH",
"83 139 LINE SMOOTH",
"63 129 OFFCURVE",
"53 113 OFFCURVE",
"66 92 CURVE SMOOTH"
);
}
);
width = 492;
}
);
unicode = 006A;
},
{
glyphname = k;
lastChange = "2016-09-22 22:57:21 +0000";
layers = (
{
hints = (
{
place = "{80, 72}";
}
);
layerId = "AB75F081-BB78-472F-B186-224F31AB1B09";
paths = (
{
closed = 1;
nodes = (
"132 664 LINE SMOOTH",
"132 687 OFFCURVE",
"119 700 OFFCURVE",
"96 700 CURVE SMOOTH",
"73 700 OFFCURVE",
"60 687 OFFCURVE",
"60 664 CURVE SMOOTH",
"60 36 LINE SMOOTH",
"60 13 OFFCURVE",
"73 0 OFFCURVE",
"96 0 CURVE SMOOTH",
"119 0 OFFCURVE",
"132 13 OFFCURVE",
"132 36 CURVE SMOOTH"
);
},
{
closed = 1;
nodes = (
"198 350 LINE",
"431 639 LINE SMOOTH",
"446 657 OFFCURVE",
"442 676 OFFCURVE",
"426 690 CURVE SMOOTH",
"408 705 OFFCURVE",
"390 703 OFFCURVE",
"375 685 CURVE SMOOTH",
"105 350 LINE",
"383 13 LINE SMOOTH",
"398 -5 OFFCURVE",
"416 -7 OFFCURVE",
"434 8 CURVE SMOOTH",
"452 23 OFFCURVE",
"454 41 OFFCURVE",
"439 59 CURVE SMOOTH"
);
}
);
width = 509;
}
);
unicode = 006B;
},
{
glyphname = l;
lastChange = "2016-09-22 22:57:21 +0000";
layers = (
{
hints = (
{
place = "{82, 72}";
},
{
horizontal = 1;
place = "{1, 72}";
}
);
layerId = "AB75F081-BB78-472F-B186-224F31AB1B09";
paths = (
{
closed = 1;
nodes = (
"132 72 LINE",
"132 664 LINE SMOOTH",
"132 687 OFFCURVE",
"119 700 OFFCURVE",
"96 700 CURVE SMOOTH",
"73 700 OFFCURVE",
"60 687 OFFCURVE",
"60 664 CURVE SMOOTH",
"60 36 LINE SMOOTH",
"60 13 OFFCURVE",
"73 0 OFFCURVE",
"96 0 CURVE SMOOTH",
"378 0 LINE SMOOTH",
"401 0 OFFCURVE",
"414 13 OFFCURVE",
"414 36 CURVE SMOOTH",
"414 59 OFFCURVE",
"401 72 OFFCURVE",
"378 72 CURVE SMOOTH"
);
}
);
width = 474;
}
);
unicode = 006C;
},
{
glyphname = m;
lastChange = "2016-09-22 22:57:21 +0000";
layers = (
{
hints = (
{
place = "{80, 72}";
},
{
place = "{507, 72}";
}
);
layerId = "AB75F081-BB78-472F-B186-224F31AB1B09";
paths = (
{
closed = 1;
nodes = (
"560 665 LINE SMOOTH",
"560 688 OFFCURVE",
"549 701 OFFCURVE",
"530 701 CURVE SMOOTH",
"510 701 OFFCURVE",
"496 692 OFFCURVE",
"489 672 CURVE SMOOTH",
"310 158 LINE",
"131 672 LINE SMOOTH",
"124 692 OFFCURVE",
"111 701 OFFCURVE",
"91 701 CURVE SMOOTH",
"72 701 OFFCURVE",
"60 688 OFFCURVE",
"60 665 CURVE SMOOTH",
"60 36 LINE SMOOTH",
"60 13 OFFCURVE",
"73 0 OFFCURVE",
"96 0 CURVE SMOOTH",
"119 0 OFFCURVE",
"132 13 OFFCURVE",
"132 36 CURVE SMOOTH",
"132 446 LINE",
"287 24 LINE SMOOTH",
"299 -9 OFFCURVE",
"321 -9 OFFCURVE",
"333 24 CURVE SMOOTH",
"488 446 LINE",
"488 36 LINE SMOOTH",
"488 13 OFFCURVE",
"501 0 OFFCURVE",
"524 0 CURVE SMOOTH",
"547 0 OFFCURVE",
"560 13 OFFCURVE",
"560 36 CURVE SMOOTH"
);
}
);
width = 620;
}
);
unicode = 006D;
},
{
glyphname = n;
lastChange = "2016-09-22 22:57:21 +0000";
layers = (
{
hints = (
{
place = "{74, 72}";
},
{
place = "{405, 72}";
}
);
layerId = "AB75F081-BB78-472F-B186-224F31AB1B09";
paths = (
{
closed = 1;
nodes = (
"390 172 LINE",
"145 674 LINE SMOOTH",
"136 692 OFFCURVE",
"123 700 OFFCURVE",
"103 700 CURVE SMOOTH",
"96 700 LINE SMOOTH",
"73 700 OFFCURVE",
"60 687 OFFCURVE",
"60 664 CURVE SMOOTH",
"60 36 LINE SMOOTH",
"60 13 OFFCURVE",
"73 0 OFFCURVE",
"96 0 CURVE SMOOTH",
"119 0 OFFCURVE",
"132 13 OFFCURVE",
"132 36 CURVE SMOOTH",
"132 528 LINE",
"377 26 LINE SMOOTH",
"386 7 OFFCURVE",
"401 0 OFFCURVE",
"426 0 CURVE SMOOTH",
"449 0 OFFCURVE",
"462 13 OFFCURVE",
"462 36 CURVE SMOOTH",
"462 664 LINE SMOOTH",
"462 687 OFFCURVE",
"449 700 OFFCURVE",
"426 700 CURVE SMOOTH",
"403 700 OFFCURVE",
"390 687 OFFCURVE",
"390 664 CURVE SMOOTH"
);
}
);
width = 522;
}
);
unicode = 006E;
},
{
glyphname = o;
lastChange = "2016-09-22 22:57:21 +0000";
layers = (
{
layerId = "AB75F081-BB78-472F-B186-224F31AB1B09";
paths = (
{
closed = 1;
nodes = (
"132 568 OFFCURVE",
"192 628 OFFCURVE",
"265 628 CURVE",
"339 628 OFFCURVE",
"398 568 OFFCURVE",
"398 495 CURVE SMOOTH",
"398 205 LINE SMOOTH",
"398 131 OFFCURVE",
"339 72 OFFCURVE",
"265 72 CURVE",
"192 72 OFFCURVE",
"132 131 OFFCURVE",
"132 205 CURVE",
"132 495 LINE"
);
},
{
closed = 1;
nodes = (
"60 205 LINE SMOOTH",
"60 91 OFFCURVE",
"152 0 OFFCURVE",
"265 0 CURVE",
"378 0 OFFCURVE",
"470 91 OFFCURVE",
"470 205 CURVE SMOOTH",
"470 495 LINE",
"470 608 OFFCURVE",
"378 700 OFFCURVE",
"265 700 CURVE",
"152 700 OFFCURVE",
"60 608 OFFCURVE",
"60 495 CURVE SMOOTH"
);
}
);
width = 530;
}
);
unicode = 006F;
},
{
glyphname = p;
lastChange = "2016-09-22 22:57:21 +0000";
layers = (
{
hints = (
{
place = "{87, 72}";
}
);
layerId = "AB75F081-BB78-472F-B186-224F31AB1B09";
paths = (
{
closed = 1;
nodes = (
"253 326 LINE SMOOTH",
"288 326 OFFCURVE",
"435 354 OFFCURVE",
"435 513 CURVE SMOOTH",
"435 672 OFFCURVE",
"286 700 OFFCURVE",
"253 700 CURVE SMOOTH",
"96 700 LINE SMOOTH",
"73 700 OFFCURVE",
"60 687 OFFCURVE",
"60 664 CURVE SMOOTH",
"60 36 LINE SMOOTH",
"60 13 OFFCURVE",
"73 0 OFFCURVE",
"96 0 CURVE SMOOTH",
"119 0 OFFCURVE",
"132 13 OFFCURVE",
"132 36 CURVE SMOOTH",
"132 628 LINE",
"253 628 LINE SMOOTH",
"279 628 OFFCURVE",
"363 612 OFFCURVE",
"363 513 CURVE SMOOTH",
"363 414 OFFCURVE",
"281 398 OFFCURVE",
"253 398 CURVE SMOOTH",
"117 398 LINE",
"117 326 LINE"
);
}
);
width = 495;
}
);
unicode = 0070;
},
{
glyphname = q;
lastChange = "2016-09-22 22:57:21 +0000";
layers = (
{
hints = (
{
horizontal = 1;
origin = "{1, 3}";
target = "{0, 9}";
},
{
horizontal = 1;
origin = "{0, 2}";
target = "{1, 10}";
},
{
place = "{61, 72}";
},
{
place = "{399, 72}";
}
);
layerId = "AB75F081-BB78-472F-B186-224F31AB1B09";
paths = (
{
closed = 1;
nodes = (
"132 569 OFFCURVE",
"192 628 OFFCURVE",
"265 628 CURVE SMOOTH",
"338 628 OFFCURVE",
"398 569 OFFCURVE",
"398 495 CURVE SMOOTH",
"398 205 LINE SMOOTH",
"398 132 OFFCURVE",
"338 72 OFFCURVE",
"265 72 CURVE SMOOTH",
"192 72 OFFCURVE",
"132 132 OFFCURVE",
"132 205 CURVE SMOOTH",
"132 495 LINE SMOOTH"
);
},
{
closed = 1;
nodes = (
"60 205 LINE SMOOTH",
"60 92 OFFCURVE",
"152 0 OFFCURVE",
"265 0 CURVE SMOOTH",
"378 0 OFFCURVE",
"470 92 OFFCURVE",
"470 205 CURVE SMOOTH",
"470 495 LINE SMOOTH",
"470 608 OFFCURVE",
"378 700 OFFCURVE",
"265 700 CURVE SMOOTH",
"152 700 OFFCURVE",
"60 608 OFFCURVE",
"60 495 CURVE SMOOTH"
);
},
{
closed = 1;
nodes = (
"445 73 OFFCURVE",
"436 71 OFFCURVE",
"426 72 CURVE SMOOTH",
"405 74 OFFCURVE",
"397 79 OFFCURVE",
"391 94 CURVE",
"325 67 LINE",
"341 26 OFFCURVE",
"374 3 OFFCURVE",
"422 0 CURVE SMOOTH",
"457 -2 OFFCURVE",
"488 10 OFFCURVE",
"511 31 CURVE SMOOTH",
"529 48 OFFCURVE",
"522 69 OFFCURVE",
"500 80 CURVE SMOOTH",
"496 82 LINE SMOOTH",
"478 91 OFFCURVE",
"468 86 OFFCURVE",
"452 77 CURVE SMOOTH"
);
}
);
width = 581;
}
);
unicode = 0071;
},
{
glyphname = r;
lastChange = "2016-09-22 22:57:21 +0000";
layers = (
{
hints = (
{
place = "{79, 72}";
}
);
layerId = "AB75F081-BB78-472F-B186-224F31AB1B09";
paths = (
{
closed = 1;
nodes = (
"253 326 LINE SMOOTH",
"288 326 OFFCURVE",
"435 354 OFFCURVE",
"435 513 CURVE SMOOTH",
"435 672 OFFCURVE",
"286 700 OFFCURVE",
"253 700 CURVE SMOOTH",
"96 700 LINE SMOOTH",
"73 700 OFFCURVE",
"60 687 OFFCURVE",
"60 664 CURVE SMOOTH",
"60 34 LINE SMOOTH",
"60 10 OFFCURVE",
"73 -2 OFFCURVE",
"96 -2 CURVE SMOOTH",
"119 -2 OFFCURVE",
"132 10 OFFCURVE",
"132 34 CURVE SMOOTH",
"132 628 LINE",
"253 628 LINE SMOOTH",
"279 628 OFFCURVE",
"363 612 OFFCURVE",
"363 513 CURVE SMOOTH",
"363 414 OFFCURVE",
"281 398 OFFCURVE",
"253 398 CURVE SMOOTH",
"117 398 LINE",
"117 326 LINE"
);
},
{
closed = 1;
nodes = (
"310 371 LINE",
"244 343 LINE",
"384 20 LINE SMOOTH",
"393 -1 OFFCURVE",
"410 -8 OFFCURVE",
"431 1 CURVE SMOOTH",
"452 10 OFFCURVE",
"459 27 OFFCURVE",
"450 48 CURVE SMOOTH"
);
}
);
width = 514;
}
);
unicode = 0072;
},
{
glyphname = s;
lastChange = "2016-09-22 22:57:21 +0000";
layers = (
{
background = {
paths = (
{
closed = 0;
nodes = (
"101 187 LINE",
"101 94 OFFCURVE",
"176 18 OFFCURVE",
"270 18 CURVE SMOOTH",
"363 18 OFFCURVE",
"438 94 OFFCURVE",
"438 187 CURVE SMOOTH",
"438 280 OFFCURVE",
"364 357 OFFCURVE",
"271 357 CURVE SMOOTH",
"182 357 OFFCURVE",
"110 429 OFFCURVE",
"110 518 CURVE SMOOTH",
"110 607 OFFCURVE",
"182 679 OFFCURVE",
"271 679 CURVE SMOOTH",
"360 679 OFFCURVE",
"432 606 OFFCURVE",
"432 518 CURVE SMOOTH"
);
}
);
};
hints = (
{
horizontal = 1;
origin = "{0, 36}";
target = "{0, 17}";
},
{
horizontal = 1;
origin = "{0, 48}";
target = "{0, 5}";
},
{
place = "{85, 72}";
},
{
place = "{397, 72}";
}
);
layerId = "AB75F081-BB78-472F-B186-224F31AB1B09";
paths = (
{
closed = 1;
nodes = (
"434 574 OFFCURVE",
"424 596 OFFCURVE",
"411 615 CURVE SMOOTH",
"376 666 OFFCURVE",
"318 700 OFFCURVE",
"254 700 CURVE SMOOTH",
"150 700 OFFCURVE",
"65 615 OFFCURVE",
"65 511 CURVE SMOOTH",
"65 407 OFFCURVE",
"153 351 OFFCURVE",
"254 322 CURVE SMOOTH",
"316 304 OFFCURVE",
"377 266 OFFCURVE",
"377 196 CURVE SMOOTH",
"377 126 OFFCURVE",
"322 71 OFFCURVE",
"253 71 CURVE SMOOTH",
"209 71 OFFCURVE",
"166 96 OFFCURVE",
"143 138 CURVE SMOOTH",
"138 147 OFFCURVE",
"134 156 OFFCURVE",
"132 166 CURVE SMOOTH",
"128 184 OFFCURVE",
"116 196 OFFCURVE",
"98 196 CURVE SMOOTH",
"93 196 LINE SMOOTH",
"73 196 OFFCURVE",
"56 178 OFFCURVE",
"61 155 CURVE SMOOTH",
"65 136 OFFCURVE",
"72 118 OFFCURVE",
"81 102 CURVE SMOOTH",
"117 39 OFFCURVE",
"183 -1 OFFCURVE",
"253 -1 CURVE SMOOTH",
"362 -1 OFFCURVE",
"449 87 OFFCURVE",
"449 196 CURVE SMOOTH",
"449 305 OFFCURVE",
"353 365 OFFCURVE",
"254 394 CURVE SMOOTH",
"189 413 OFFCURVE",
"137 446 OFFCURVE",
"137 511 CURVE SMOOTH",
"137 576 OFFCURVE",
"189 628 OFFCURVE",
"254 628 CURVE SMOOTH",
"294 628 OFFCURVE",
"331 610 OFFCURVE",
"351 577 CURVE SMOOTH",
"359 564 OFFCURVE",
"365 552 OFFCURVE",
"368 540 CURVE SMOOTH",
"372 523 OFFCURVE",
"384 511 OFFCURVE",
"401 511 CURVE SMOOTH",
"408 511 LINE SMOOTH",
"428 511 OFFCURVE",
"444 530 OFFCURVE",
"439 553 CURVE SMOOTH"
);
}
);
width = 509;
}
);
unicode = 0073;
},
{
glyphname = t;
lastChange = "2016-09-22 22:57:21 +0000";
layers = (
{
layerId = "AB75F081-BB78-472F-B186-224F31AB1B09";
paths = (
{
closed = 1;
nodes = (
"313 664 LINE",
"241 664 LINE",
"241 37 LINE SMOOTH",
"241 15 OFFCURVE",
"257 0 OFFCURVE",
"277 0 CURVE SMOOTH",
"297 0 OFFCURVE",
"313 15 OFFCURVE",
"313 37 CURVE SMOOTH"
);
},
{
closed = 1;
nodes = (
"97 700 LINE SMOOTH",
"76 700 OFFCURVE",
"60 684 OFFCURVE",
"60 664 CURVE SMOOTH",
"60 644 OFFCURVE",
"76 628 OFFCURVE",
"97 628 CURVE SMOOTH",
"457 629 LINE SMOOTH",
"478 629 OFFCURVE",
"494 645 OFFCURVE",
"494 665 CURVE SMOOTH",
"494 685 OFFCURVE",
"478 701 OFFCURVE",
"457 701 CURVE SMOOTH"
);
}
);
width = 554;
}
);
unicode = 0074;
},
{
glyphname = u;
lastChange = "2016-09-22 22:57:21 +0000";
layers = (
{
hints = (
{
horizontal = 1;
origin = "{0, 6}";
target = "{0, 20}";
},
{
place = "{70, 72}";
},
{
place = "{408, 72}";
}
);
layerId = "AB75F081-BB78-472F-B186-224F31AB1B09";
paths = (
{
closed = 1;
nodes = (
"73 700 OFFCURVE",
"60 688 OFFCURVE",
"60 664 CURVE SMOOTH",
"60 205 LINE SMOOTH",
"60 92 OFFCURVE",
"152 0 OFFCURVE",
"265 0 CURVE SMOOTH",
"378 0 OFFCURVE",
"470 92 OFFCURVE",
"470 205 CURVE",
"470 664 LINE SMOOTH",
"470 688 OFFCURVE",
"457 700 OFFCURVE",
"434 700 CURVE SMOOTH",
"411 700 OFFCURVE",
"398 688 OFFCURVE",
"398 664 CURVE SMOOTH",
"398 205 LINE SMOOTH",
"398 131 OFFCURVE",
"338 72 OFFCURVE",
"265 72 CURVE SMOOTH",
"191 72 OFFCURVE",
"132 132 OFFCURVE",
"132 205 CURVE",
"132 664 LINE SMOOTH",
"132 688 OFFCURVE",
"119 700 OFFCURVE",
"96 700 CURVE SMOOTH"
);
}
);
width = 530;
}
);
unicode = 0075;
},
{
glyphname = v;
lastChange = "2016-09-22 22:57:21 +0000";
layers = (
{
layerId = "AB75F081-BB78-472F-B186-224F31AB1B09";
paths = (
{
closed = 1;
nodes = (
"262 184 LINE",
"131 666 LINE SMOOTH",
"125 688 OFFCURVE",
"109 697 OFFCURVE",
"87 691 CURVE SMOOTH",
"65 685 OFFCURVE",
"56 669 OFFCURVE",
"62 647 CURVE SMOOTH",
"230 31 LINE SMOOTH",
"235 11 OFFCURVE",
"247 0 OFFCURVE",
"264 0 CURVE SMOOTH",
"281 0 OFFCURVE",
"292 11 OFFCURVE",
"297 31 CURVE SMOOTH",
"456 647 LINE SMOOTH",
"462 669 OFFCURVE",
"452 685 OFFCURVE",
"430 691 CURVE SMOOTH",
"408 697 OFFCURVE",
"392 687 OFFCURVE",
"386 665 CURVE SMOOTH"
);
}
);
width = 518;
}
);
unicode = 0076;
},
{
glyphname = w;
lastChange = "2016-09-22 22:57:21 +0000";
layers = (
{
layerId = "AB75F081-BB78-472F-B186-224F31AB1B09";
paths = (
{
closed = 1;
nodes = (
"462 212 LINE",
"375 668 LINE SMOOTH",
"371 689 OFFCURVE",
"359 701 OFFCURVE",
"340 701 CURVE SMOOTH",
"321 701 OFFCURVE",
"309 689 OFFCURVE",
"305 668 CURVE SMOOTH",
"218 212 LINE",
"132 665 LINE SMOOTH",
"128 688 OFFCURVE",
"113 698 OFFCURVE",
"90 694 CURVE SMOOTH",
"67 690 OFFCURVE",
"56 675 OFFCURVE",
"61 652 CURVE SMOOTH",
"182 33 LINE SMOOTH",
"186 12 OFFCURVE",
"198 0 OFFCURVE",
"218 0 CURVE SMOOTH",
"237 0 OFFCURVE",
"249 12 OFFCURVE",
"253 33 CURVE SMOOTH",
"340 448 LINE",
"429 33 LINE SMOOTH",
"433 12 OFFCURVE",
"445 0 OFFCURVE",
"465 0 CURVE SMOOTH",
"484 0 OFFCURVE",
"496 12 OFFCURVE",
"500 33 CURVE SMOOTH",
"620 652 LINE SMOOTH",
"625 676 OFFCURVE",
"613 690 OFFCURVE",
"590 694 CURVE SMOOTH",
"567 698 OFFCURVE",
"553 688 OFFCURVE",
"549 665 CURVE SMOOTH"
);
}
);
width = 681;
}
);
unicode = 0077;
},
{
glyphname = x;
lastChange = "2016-09-22 22:57:21 +0000";
layers = (
{
layerId = "AB75F081-BB78-472F-B186-224F31AB1B09";
paths = (
{
closed = 1;
nodes = (
"457 643 LINE SMOOTH",
"467 662 OFFCURVE",
"461 683 OFFCURVE",
"443 693 CURVE SMOOTH",
"425 703 OFFCURVE",
"404 697 OFFCURVE",
"394 678 CURVE SMOOTH",
"65 57 LINE SMOOTH",
"55 38 OFFCURVE",
"61 17 OFFCURVE",
"79 7 CURVE SMOOTH",
"97 -3 OFFCURVE",
"117 4 OFFCURVE",
"127 22 CURVE SMOOTH"
);
},
{
closed = 1;
nodes = (
"128 678 LINE SMOOTH",
"118 696 OFFCURVE",
"97 703 OFFCURVE",
"79 692 CURVE SMOOTH",
"60 681 OFFCURVE",
"55 660 OFFCURVE",
"65 642 CURVE SMOOTH",
"406 22 LINE SMOOTH",
"416 4 OFFCURVE",
"437 -3 OFFCURVE",
"456 8 CURVE SMOOTH",
"474 18 OFFCURVE",
"479 39 OFFCURVE",
"469 57 CURVE SMOOTH"
);
}
);
width = 534;
}
);
unicode = 0078;
},
{
glyphname = y;
lastChange = "2016-09-22 22:57:21 +0000";
layers = (
{
hints = (
{
horizontal = 1;
place = "{-2, 69857}";
},
{
place = "{243, 72}";
}
);
layerId = "AB75F081-BB78-472F-B186-224F31AB1B09";
paths = (
{
closed = 1;
nodes = (
"423 702 OFFCURVE",
"402 695 OFFCURVE",
"392 677 CURVE SMOOTH",
"263 434 LINE",
"127 678 LINE SMOOTH",
"117 696 OFFCURVE",
"96 702 OFFCURVE",
"78 692 CURVE SMOOTH",
"60 682 OFFCURVE",
"55 660 OFFCURVE",
"65 642 CURVE SMOOTH",
"228 348 LINE",
"228 35 LINE SMOOTH",
"228 13 OFFCURVE",
"244 -2 OFFCURVE",
"264 -2 CURVE SMOOTH",
"284 -2 OFFCURVE",
"300 13 OFFCURVE",
"300 35 CURVE SMOOTH",
"300 348 LINE",
"455 642 LINE SMOOTH",
"465 661 OFFCURVE",
"459 682 OFFCURVE",
"441 692 CURVE SMOOTH"
);
}
);
width = 520;
}
);
unicode = 0079;
},
{
glyphname = z;
lastChange = "2016-09-22 22:57:21 +0000";
layers = (
{
hints = (
{
horizontal = 1;
origin = "{0, 16}";
target = "{0, 23}";
},
{
horizontal = 1;
origin = "{0, 11}";
target = "{0, 5}";
}
);
layerId = "AB75F081-BB78-472F-B186-224F31AB1B09";
paths = (
{
closed = 1;
nodes = (
"151 72 LINE",
"421 634 LINE SMOOTH",
"437 666 OFFCURVE",
"418 700 OFFCURVE",
"382 700 CURVE SMOOTH",
"108 700 LINE SMOOTH",
"87 700 OFFCURVE",
"71 684 OFFCURVE",
"71 664 CURVE SMOOTH",
"71 644 OFFCURVE",
"87 628 OFFCURVE",
"108 628 CURVE SMOOTH",
"335 628 LINE",
"66 66 LINE SMOOTH",
"51 34 OFFCURVE",
"69 0 OFFCURVE",
"105 0 CURVE SMOOTH",
"378 1 LINE SMOOTH",
"399 1 OFFCURVE",
"415 16 OFFCURVE",
"415 38 CURVE SMOOTH",
"415 58 OFFCURVE",
"399 73 OFFCURVE",
"378 73 CURVE SMOOTH"
);
}
);
width = 486;
}
);
unicode = 007A;
},
{
glyphname = zero;
lastChange = "2016-09-22 22:57:21 +0000";
layers = (
{
layerId = "AB75F081-BB78-472F-B186-224F31AB1B09";
paths = (
{
closed = 1;
nodes = (
"132 116 OFFCURVE",
"170 72 OFFCURVE",
"237 72 CURVE",
"302 72 OFFCURVE",
"342 113 OFFCURVE",
"342 170 CURVE",
"342 530 LINE",
"342 585 OFFCURVE",
"305 628 OFFCURVE",
"237 628 CURVE",
"172 628 OFFCURVE",
"132 587 OFFCURVE",
"132 530 CURVE",
"132 170 LINE"
);
},
{
closed = 1;
nodes = (
"237 700 CURVE",
"342 700 OFFCURVE",
"414 627 OFFCURVE",
"414 530 CURVE",
"414 170 LINE",
"414 75 OFFCURVE",
"342 0 OFFCURVE",
"237 0 CURVE",
"132 0 OFFCURVE",
"60 74 OFFCURVE",
"60 170 CURVE",
"60 530 LINE",
"60 625 OFFCURVE",
"130 700 OFFCURVE"
);
}
);
width = 474;
}
);
unicode = 0030;
},
{
glyphname = one;
lastChange = "2016-09-22 23:08:30 +0000";
layers = (
{
hints = (
{
place = "{206, 72}";
}
);
layerId = "AB75F081-BB78-472F-B186-224F31AB1B09";
paths = (
{
closed = 1;
nodes = (
"244 695 OFFCURVE",
"253 699 OFFCURVE",
"264 699 CURVE",
"284 699 OFFCURVE",
"300 683 OFFCURVE",
"300 663 CURVE",
"300 35 LINE",
"300 15 OFFCURVE",
"284 -1 OFFCURVE",
"264 -1 CURVE",
"244 -1 OFFCURVE",
"228 15 OFFCURVE",
"228 35 CURVE",
"228 593 LINE",
"176 557 LINE",
"160 546 OFFCURVE",
"138 550 OFFCURVE",
"126 566 CURVE",
"115 582 OFFCURVE",
"119 605 OFFCURVE",
"135 616 CURVE",
"237 687 LINE"
);
}
);
width = 420;
}
);
leftMetricsKey = I;
rightMetricsKey = I;
unicode = 0031;
},
{
glyphname = two;
lastChange = "2016-09-22 22:57:21 +0000";
layers = (
{
layerId = "AB75F081-BB78-472F-B186-224F31AB1B09";
paths = (
{
closed = 1;
nodes = (
"381 72 LINE SMOOTH",
"401 72 OFFCURVE",
"417 56 OFFCURVE",
"417 36 CURVE SMOOTH",
"417 16 OFFCURVE",
"401 0 OFFCURVE",
"381 0 CURVE SMOOTH",
"102 0 LINE",
"93 0 OFFCURVE",
"85 0 OFFCURVE",
"77 6 CURVE",
"60 17 OFFCURVE",
"56 39 OFFCURVE",
"68 57 CURVE",
"69 58 OFFCURVE",
"103 108 OFFCURVE",
"114 125 CURVE SMOOTH",
"149 176 OFFCURVE",
"183 229 OFFCURVE",
"216 279 CURVE SMOOTH",
"258 342 OFFCURVE",
"295 399 OFFCURVE",
"331 459 CURVE SMOOTH",
"354 497 OFFCURVE",
"353 579 OFFCURVE",
"313 609 CURVE SMOOTH",
"298 621 OFFCURVE",
"278 628 OFFCURVE",
"250 628 CURVE SMOOTH",
"222 628 OFFCURVE",
"200 621 OFFCURVE",
"183 609 CURVE SMOOTH",
"169 599 OFFCURVE",
"158 584 OFFCURVE",
"149 566 CURVE SMOOTH",
"136 538 OFFCURVE",
"139 538 OFFCURVE",
"132 505 CURVE",
"128 479 OFFCURVE",
"117 464 OFFCURVE",
"95 465 CURVE",
"75 465 OFFCURVE",
"60 482 OFFCURVE",
"60 506 CURVE SMOOTH",
"60 526 OFFCURVE",
"70 568 OFFCURVE",
"83 596 CURVE SMOOTH",
"97 625 OFFCURVE",
"117 649 OFFCURVE",
"142 667 CURVE SMOOTH",
"172 688 OFFCURVE",
"207 700 OFFCURVE",
"250 700 CURVE SMOOTH",
"294 700 OFFCURVE",
"330 688 OFFCURVE",
"358 665 CURVE SMOOTH",
"383 644 OFFCURVE",
"401 616 OFFCURVE",
"410 583 CURVE SMOOTH",
"425 528 OFFCURVE",
"417 462 OFFCURVE",
"392 421 CURVE SMOOTH",
"370 385 OFFCURVE",
"299 273 OFFCURVE",
"276 239 CURVE SMOOTH",
"183 99 OFFCURVE",
"164 71 OFFCURVE",
"165 72 CURVE"
);
}
);
width = 478;
}
);
unicode = 0032;
},
{
glyphname = three;
lastChange = "2016-09-22 22:57:21 +0000";
layers = (
{
layerId = "AB75F081-BB78-472F-B186-224F31AB1B09";
paths = (
{
closed = 1;
nodes = (
"323 75 OFFCURVE",
"378 131 OFFCURVE",
"377 196 CURVE",
"375 262 OFFCURVE",
"322 325 OFFCURVE",
"253 325 CURVE",
"233 325 OFFCURVE",
"218 341 OFFCURVE",
"218 361 CURVE",
"218 381 OFFCURVE",
"233 397 OFFCURVE",
"253 397 CURVE",
"322 397 OFFCURVE",
"368 455 OFFCURVE",
"367 521 CURVE",
"365 586 OFFCURVE",
"319 630 OFFCURVE",
"252 629 CURVE",
"184 628 OFFCURVE",
"140 583 OFFCURVE",
"141 518 CURVE",
"141 497 OFFCURVE",
"125 481 OFFCURVE",
"106 481 CURVE",
"87 481 OFFCURVE",
"71 497 OFFCURVE",
"71 518 CURVE",
"69 624 OFFCURVE",
"144 700 OFFCURVE",
"250 702 CURVE",
"357 704 OFFCURVE",
"436 629 OFFCURVE",
"438 522 CURVE",
"439 456 OFFCURVE",
"416 397 OFFCURVE",
"366 361 CURVE",
"414 328 OFFCURVE",
"447 261 OFFCURVE",
"448 197 CURVE",
"449 91 OFFCURVE",
"364 3 OFFCURVE",
"257 1 CURVE",
"153 -1 OFFCURVE",
"67 79 OFFCURVE",
"60 181 CURVE",
"61 201 OFFCURVE",
"77 218 OFFCURVE",
"96 218 CURVE",
"115 218 OFFCURVE",
"131 201 OFFCURVE",
"131 181 CURVE",
"138 121 OFFCURVE",
"192 73 OFFCURVE",
"256 74 CURVE"
);
}
);
width = 508;
}
);
unicode = 0033;
},
{
glyphname = four;
lastChange = "2016-09-22 22:57:21 +0000";
layers = (
{
hints = (
{
horizontal = 1;
place = "{139, 72}";
}
);
layerId = "AB75F081-BB78-472F-B186-224F31AB1B09";
paths = (
{
closed = 1;
nodes = (
"376 699 OFFCURVE",
"328 712 OFFCURVE",
"310 681 CURVE",
"66 193 LINE",
"51 169 OFFCURVE",
"69 139 OFFCURVE",
"96 139 CURVE",
"439 139 LINE",
"458 139 OFFCURVE",
"475 155 OFFCURVE",
"475 175 CURVE",
"475 195 OFFCURVE",
"458 211 OFFCURVE",
"439 211 CURVE",
"96 211 LINE",
"127 157 LINE",
"371 644 LINE",
"305 662 LINE",
"305 36 LINE",
"305 15 OFFCURVE",
"321 0 OFFCURVE",
"341 0 CURVE",
"361 0 OFFCURVE",
"376 15 OFFCURVE",
"376 36 CURVE",
"376 662 LINE"
);
}
);
width = 535;
}
);
unicode = 0034;
},
{
glyphname = five;
lastChange = "2016-09-22 22:57:21 +0000";
layers = (
{
layerId = "AB75F081-BB78-472F-B186-224F31AB1B09";
paths = (
{
closed = 1;
nodes = (
"338 455 OFFCURVE",
"434 353 OFFCURVE",
"434 227 CURVE SMOOTH",
"434 102 OFFCURVE",
"338 0 OFFCURVE",
"218 0 CURVE SMOOTH",
"150 0 OFFCURVE",
"60 42 OFFCURVE",
"60 88 CURVE SMOOTH",
"60 108 OFFCURVE",
"75 124 OFFCURVE",
"94 124 CURVE SMOOTH",
"114 124 OFFCURVE",
"145 72 OFFCURVE",
"218 72 CURVE SMOOTH",
"300 72 OFFCURVE",
"366 142 OFFCURVE",
"366 227 CURVE SMOOTH",
"366 313 OFFCURVE",
"300 383 OFFCURVE",
"218 383 CURVE SMOOTH",
"186 383 OFFCURVE",
"153 376 OFFCURVE",
"132 355 CURVE SMOOTH",
"118 341 OFFCURVE",
"110 335 OFFCURVE",
"96 335 CURVE SMOOTH",
"76 335 OFFCURVE",
"62 352 OFFCURVE",
"63 371 CURVE SMOOTH",
"81 664 LINE SMOOTH",
"83 691 OFFCURVE",
"97 700 OFFCURVE",
"117 700 CURVE SMOOTH",
"360 700 LINE SMOOTH",
"380 700 OFFCURVE",
"396 684 OFFCURVE",
"396 664 CURVE SMOOTH",
"396 644 OFFCURVE",
"380 628 OFFCURVE",
"360 628 CURVE SMOOTH",
"150 628 LINE",
"136 438 LINE",
"161 449 OFFCURVE",
"189 455 OFFCURVE",
"218 455 CURVE SMOOTH"
);
}
);
width = 494;
}
);
unicode = 0035;
},
{
glyphname = six;
lastChange = "2016-09-22 22:57:21 +0000";
layers = (
{
layerId = "AB75F081-BB78-472F-B186-224F31AB1B09";
paths = (
{
closed = 1;
nodes = (
"416 524 OFFCURVE",
"405 512 OFFCURVE",
"388 512 CURVE SMOOTH",
"373 512 OFFCURVE",
"352 518 OFFCURVE",
"348 543 CURVE",
"336 600 OFFCURVE",
"303 628 OFFCURVE",
"244 628 CURVE SMOOTH",
"187 628 OFFCURVE",
"132 581 OFFCURVE",
"132 523 CURVE SMOOTH",
"132 221 LINE",
"61 221 LINE",
"60 523 LINE SMOOTH",
"60 620 OFFCURVE",
"147 700 OFFCURVE",
"244 700 CURVE SMOOTH",
"342 700 OFFCURVE",
"405 643 OFFCURVE",
"419 550 CURVE"
);
},
{
closed = 1;
nodes = (
"132 125 OFFCURVE",
"185 77 OFFCURVE",
"244 77 CURVE SMOOTH",
"301 77 OFFCURVE",
"352 125 OFFCURVE",
"352 187 CURVE SMOOTH",
"352 275 LINE SMOOTH",
"352 337 OFFCURVE",
"303 387 OFFCURVE",
"244 387 CURVE SMOOTH",
"187 387 OFFCURVE",
"132 337 OFFCURVE",
"132 275 CURVE SMOOTH",
"132 187 LINE SMOOTH"
);
},
{
closed = 1;
nodes = (
"352 465 OFFCURVE",
"424 380 OFFCURVE",
"424 275 CURVE SMOOTH",
"424 187 LINE SMOOTH",
"424 85 OFFCURVE",
"352 0 OFFCURVE",
"244 0 CURVE SMOOTH",
"135 0 OFFCURVE",
"60 85 OFFCURVE",
"60 187 CURVE SMOOTH",
"60 384 OFFCURVE",
"110 465 OFFCURVE",
"244 465 CURVE SMOOTH"
);
}
);
width = 484;
}
);
unicode = 0036;
},
{
glyphname = seven;
lastChange = "2016-09-22 22:57:21 +0000";
layers = (
{
layerId = "AB75F081-BB78-472F-B186-224F31AB1B09";
paths = (
{
closed = 1;
nodes = (
"96 700 LINE SMOOTH",
"76 700 OFFCURVE",
"60 684 OFFCURVE",
"60 664 CURVE SMOOTH",
"60 644 OFFCURVE",
"76 628 OFFCURVE",
"96 628 CURVE SMOOTH",
"357 628 LINE",
"343 597 OFFCURVE",
"305 507 OFFCURVE",
"301 495 CURVE SMOOTH",
"285 454 OFFCURVE",
"249 348 OFFCURVE",
"238 310 CURVE SMOOTH",
"219 242 OFFCURVE",
"189 95 OFFCURVE",
"184 65 CURVE SMOOTH",
"176 14 OFFCURVE",
"187 0 OFFCURVE",
"216 0 CURVE SMOOTH",
"233 0 OFFCURVE",
"249 13 OFFCURVE",
"252 30 CURVE SMOOTH",
"281 193 OFFCURVE",
"283 205 OFFCURVE",
"308 291 CURVE SMOOTH",
"326 352 OFFCURVE",
"347 415 OFFCURVE",
"368 469 CURVE SMOOTH",
"389 522 OFFCURVE",
"449 647 OFFCURVE",
"449 664 CURVE SMOOTH",
"449 683 OFFCURVE",
"434 700 OFFCURVE",
"413 700 CURVE SMOOTH"
);
}
);
width = 509;
}
);
unicode = 0037;
},
{
glyphname = eight;
lastChange = "2016-09-22 23:09:02 +0000";
layers = (
{
layerId = "AB75F081-BB78-472F-B186-224F31AB1B09";
paths = (
{
closed = 1;
nodes = (
"70 423 OFFCURVE",
"142 336 OFFCURVE",
"245 336 CURVE",
"347 336 OFFCURVE",
"419 423 OFFCURVE",
"419 518 CURVE",
"419 614 OFFCURVE",
"347 700 OFFCURVE",
"245 700 CURVE",
"142 700 OFFCURVE",
"70 614 OFFCURVE",
"70 518 CURVE"
);
},
{
closed = 1;
nodes = (
"347 462 OFFCURVE",
"296 408 OFFCURVE",
"245 408 CURVE",
"193 408 OFFCURVE",
"142 462 OFFCURVE",
"142 518 CURVE",
"142 575 OFFCURVE",
"193 628 OFFCURVE",
"245 628 CURVE",
"296 628 OFFCURVE",
"347 575 OFFCURVE",
"347 518 CURVE"
);
},
{
closed = 1;
nodes = (
"60 95 OFFCURVE",
"142 0 OFFCURVE",
"245 0 CURVE",
"347 0 OFFCURVE",
"429 95 OFFCURVE",
"429 200 CURVE",
"429 306 OFFCURVE",
"347 408 OFFCURVE",
"245 408 CURVE",
"142 408 OFFCURVE",
"60 306 OFFCURVE",
"60 200 CURVE"
);
},
{
closed = 1;
nodes = (
"357 134 OFFCURVE",
"306 72 OFFCURVE",
"245 72 CURVE",
"183 72 OFFCURVE",
"132 134 OFFCURVE",
"132 200 CURVE",
"132 267 OFFCURVE",
"183 336 OFFCURVE",
"245 336 CURVE",
"306 336 OFFCURVE",
"357 267 OFFCURVE",
"357 200 CURVE"
);
}
);
width = 489;
}
);
unicode = 0038;
},
{
glyphname = nine;
lastChange = "2016-09-22 22:57:21 +0000";
layers = (
{
layerId = "AB75F081-BB78-472F-B186-224F31AB1B09";
paths = (
{
closed = 1;
nodes = (
"60 157 CURVE",
"63 180 OFFCURVE",
"78 192 OFFCURVE",
"95 192 CURVE SMOOTH",
"113 192 OFFCURVE",
"128 178 OFFCURVE",
"131 160 CURVE",
"133 102 OFFCURVE",
"176 72 OFFCURVE",
"240 72 CURVE SMOOTH",
"297 72 OFFCURVE",
"352 116 OFFCURVE",
"352 174 CURVE",
"352 422 LINE",
"424 422 LINE",
"424 174 LINE",
"424 82 OFFCURVE",
"337 0 OFFCURVE",
"240 0 CURVE SMOOTH",
"142 0 OFFCURVE",
"62 58 OFFCURVE"
);
},
{
closed = 1;
nodes = (
"352 572 OFFCURVE",
"299 623 OFFCURVE",
"240 623 CURVE SMOOTH",
"183 623 OFFCURVE",
"132 572 OFFCURVE",
"132 510 CURVE SMOOTH",
"132 422 LINE SMOOTH",
"132 360 OFFCURVE",
"181 310 OFFCURVE",
"240 310 CURVE SMOOTH",
"297 310 OFFCURVE",
"352 360 OFFCURVE",
"352 422 CURVE SMOOTH",
"352 510 LINE SMOOTH"
);
},
{
closed = 1;
nodes = (
"141 232 OFFCURVE",
"60 317 OFFCURVE",
"60 422 CURVE SMOOTH",
"60 510 LINE SMOOTH",
"60 615 OFFCURVE",
"143 700 OFFCURVE",
"240 700 CURVE SMOOTH",
"339 700 OFFCURVE",
"424 615 OFFCURVE",
"424 510 CURVE SMOOTH",
"424 422 LINE SMOOTH",
"424 317 OFFCURVE",
"343 232 OFFCURVE",
"240 232 CURVE SMOOTH"
);
}
);
width = 484;
}
);
unicode = 0039;
},
{
glyphname = asterisk;
lastChange = "2016-09-22 22:57:21 +0000";
layers = (
{
layerId = "AB75F081-BB78-472F-B186-224F31AB1B09";
paths = (
{
closed = 1;
nodes = (
"116 466 LINE SMOOTH",
"98 477 OFFCURVE",
"77 472 OFFCURVE",
"66 455 CURVE SMOOTH",
"55 438 OFFCURVE",
"60 416 OFFCURVE",
"78 405 CURVE SMOOTH",
"334 248 LINE SMOOTH",
"352 237 OFFCURVE",
"373 242 OFFCURVE",
"384 259 CURVE SMOOTH",
"395 276 OFFCURVE",
"390 298 OFFCURVE",
"372 309 CURVE SMOOTH"
);
},
{
closed = 1;
nodes = (
"78 309 LINE SMOOTH",
"60 298 OFFCURVE",
"55 276 OFFCURVE",
"66 259 CURVE SMOOTH",
"77 242 OFFCURVE",
"98 237 OFFCURVE",
"116 248 CURVE SMOOTH",
"372 405 LINE SMOOTH",
"390 416 OFFCURVE",
"395 438 OFFCURVE",
"384 455 CURVE SMOOTH",
"373 472 OFFCURVE",
"352 477 OFFCURVE",
"334 466 CURVE SMOOTH"
);
},
{
closed = 1;
nodes = (
"261 554 LINE SMOOTH",
"261 575 OFFCURVE",
"245 591 OFFCURVE",
"225 591 CURVE SMOOTH",
"205 591 OFFCURVE",
"189 575 OFFCURVE",
"189 554 CURVE SMOOTH",
"189 162 LINE SMOOTH",
"189 141 OFFCURVE",
"205 125 OFFCURVE",
"225 125 CURVE SMOOTH",
"245 125 OFFCURVE",
"261 141 OFFCURVE",
"261 162 CURVE SMOOTH"
);
}
);
width = 450;
}
);
unicode = 002A;
},
{
glyphname = backslash;
lastChange = "2016-09-22 22:57:21 +0000";
layers = (
{
layerId = "AB75F081-BB78-472F-B186-224F31AB1B09";
paths = (
{
closed = 1;
nodes = (
"131 672 LINE SMOOTH",
"125 692 OFFCURVE",
"107 704 OFFCURVE",
"87 699 CURVE SMOOTH",
"67 694 OFFCURVE",
"55 675 OFFCURVE",
"61 655 CURVE SMOOTH",
"251 32 LINE SMOOTH",
"257 12 OFFCURVE",
"275 0 OFFCURVE",
"295 5 CURVE SMOOTH",
"315 10 OFFCURVE",
"327 29 OFFCURVE",
"321 49 CURVE SMOOTH"
);
}
);
width = 384;
}
);
unicode = 005C;
},
{
glyphname = periodcentered;
lastChange = "2016-09-22 22:59:56 +0000";
layers = (
{
layerId = "AB75F081-BB78-472F-B186-224F31AB1B09";
paths = (
{
closed = 1;
nodes = (
"190 281 OFFCURVE",
"210 301 OFFCURVE",
"210 326 CURVE SMOOTH",
"210 351 OFFCURVE",
"190 371 OFFCURVE",
"165 371 CURVE SMOOTH",
"140 371 OFFCURVE",
"120 351 OFFCURVE",
"120 326 CURVE SMOOTH",
"120 301 OFFCURVE",
"140 281 OFFCURVE",
"165 281 CURVE SMOOTH"
);
}
);
width = 330;
}
);
leftMetricsKey = I;
rightMetricsKey = I;
unicode = 00B7;
},
{
glyphname = bullet;
lastChange = "2016-09-22 22:57:21 +0000";
layers = (
{
layerId = "AB75F081-BB78-472F-B186-224F31AB1B09";
paths = (
{
closed = 1;
nodes = (
"172 253 OFFCURVE",
"204 285 OFFCURVE",
"204 325 CURVE SMOOTH",
"204 365 OFFCURVE",
"172 397 OFFCURVE",
"132 397 CURVE SMOOTH",
"92 397 OFFCURVE",
"60 365 OFFCURVE",
"60 325 CURVE SMOOTH",
"60 285 OFFCURVE",
"92 253 OFFCURVE",
"132 253 CURVE SMOOTH"
);
}
);
width = 264;
}
);
unicode = 2022;
},
{
glyphname = colon;
lastChange = "2016-09-22 22:59:56 +0000";
layers = (
{
layerId = "AB75F081-BB78-472F-B186-224F31AB1B09";
paths = (
{
closed = 1;
nodes = (
"190 500 OFFCURVE",
"210 519 OFFCURVE",
"210 545 CURVE SMOOTH",
"210 569 OFFCURVE",
"190 589 OFFCURVE",
"165 589 CURVE SMOOTH",
"140 589 OFFCURVE",
"120 569 OFFCURVE",
"120 545 CURVE SMOOTH",
"120 519 OFFCURVE",
"140 500 OFFCURVE",
"165 500 CURVE SMOOTH"
);
},
{
closed = 1;
nodes = (
"190 80 OFFCURVE",
"210 100 OFFCURVE",
"210 125 CURVE SMOOTH",
"210 150 OFFCURVE",
"190 169 OFFCURVE",
"165 169 CURVE SMOOTH",
"140 169 OFFCURVE",
"120 150 OFFCURVE",
"120 125 CURVE SMOOTH",
"120 100 OFFCURVE",
"140 80 OFFCURVE",
"165 80 CURVE SMOOTH"
);
}
);
width = 330;
}
);
leftMetricsKey = I;
rightMetricsKey = I;
unicode = 003A;
},
{
glyphname = comma;
lastChange = "2016-09-22 22:57:21 +0000";
layers = (
{
layerId = "AB75F081-BB78-472F-B186-224F31AB1B09";
paths = (
{
closed = 1;
nodes = (
"170 129 OFFCURVE",
"165 138 OFFCURVE",
"162 144 CURVE",
"160 149 OFFCURVE",
"157 153 OFFCURVE",
"154 156 CURVE",
"146 165 OFFCURVE",
"134 170 OFFCURVE",
"121 170 CURVE SMOOTH",
"96 170 OFFCURVE",
"76 150 OFFCURVE",
"76 126 CURVE SMOOTH",
"76 111 OFFCURVE",
"82 98 OFFCURVE",
"92 90 CURVE",
"70 62 LINE",
"56 46 OFFCURVE",
"58 24 OFFCURVE",
"73 11 CURVE",
"90 -2 OFFCURVE",
"112 -1 OFFCURVE",
"126 16 CURVE SMOOTH",
"151 47 OFFCURVE",
"170 70 OFFCURVE",
"170 87 CURVE SMOOTH",
"170 101 OFFCURVE",
"170 103 OFFCURVE",
"170 122 CURVE SMOOTH"
);
}
);
width = 229;
}
);
unicode = 002C;
},
{
glyphname = ellipsis;
lastChange = "2016-09-22 22:57:21 +0000";
layers = (
{
layerId = "AB75F081-BB78-472F-B186-224F31AB1B09";
paths = (
{
closed = 1;
nodes = (
"116 0 OFFCURVE",
"132 16 OFFCURVE",
"132 36 CURVE SMOOTH",
"132 56 OFFCURVE",
"116 72 OFFCURVE",
"96 72 CURVE SMOOTH",
"76 72 OFFCURVE",
"60 56 OFFCURVE",
"60 36 CURVE SMOOTH",
"60 16 OFFCURVE",
"76 0 OFFCURVE",
"96 0 CURVE SMOOTH"
);
},
{
closed = 1;
nodes = (
"236 0 OFFCURVE",
"252 16 OFFCURVE",
"252 36 CURVE SMOOTH",
"252 56 OFFCURVE",
"236 72 OFFCURVE",
"216 72 CURVE SMOOTH",
"196 72 OFFCURVE",
"180 56 OFFCURVE",
"180 36 CURVE SMOOTH",
"180 16 OFFCURVE",
"196 0 OFFCURVE",
"216 0 CURVE SMOOTH"
);
},
{
closed = 1;
nodes = (
"356 0 OFFCURVE",
"372 16 OFFCURVE",
"372 36 CURVE SMOOTH",
"372 56 OFFCURVE",
"356 72 OFFCURVE",
"336 72 CURVE SMOOTH",
"316 72 OFFCURVE",
"300 56 OFFCURVE",
"300 36 CURVE SMOOTH",
"300 16 OFFCURVE",
"316 0 OFFCURVE",
"336 0 CURVE SMOOTH"
);
}
);
width = 432;
}
);
unicode = 2026;
},
{
glyphname = exclam;
lastChange = "2016-09-22 22:59:56 +0000";
layers = (
{
layerId = "AB75F081-BB78-472F-B186-224F31AB1B09";
paths = (
{
closed = 1;
nodes = (
"202 663 LINE SMOOTH",
"202 684 OFFCURVE",
"187 700 OFFCURVE",
"167 700 CURVE SMOOTH",
"146 700 OFFCURVE",
"130 684 OFFCURVE",
"130 663 CURVE SMOOTH",
"130 208 LINE SMOOTH",
"130 187 OFFCURVE",
"145 171 OFFCURVE",
"165 171 CURVE SMOOTH",
"186 171 OFFCURVE",
"202 187 OFFCURVE",
"202 208 CURVE SMOOTH"
);
},
{
closed = 1;
nodes = (
"190 0 OFFCURVE",
"210 20 OFFCURVE",
"210 45 CURVE SMOOTH",
"210 70 OFFCURVE",
"190 90 OFFCURVE",
"165 90 CURVE SMOOTH",
"140 90 OFFCURVE",
"120 70 OFFCURVE",
"120 45 CURVE SMOOTH",
"120 20 OFFCURVE",
"140 0 OFFCURVE",
"165 0 CURVE SMOOTH"
);
}
);
width = 330;
}
);
leftMetricsKey = I;
rightMetricsKey = I;
unicode = 0021;
},
{
glyphname = numbersign;
lastChange = "2016-09-22 22:57:21 +0000";
layers = (
{
layerId = "AB75F081-BB78-472F-B186-224F31AB1B09";
paths = (
{
closed = 1;
nodes = (
"241 664 LINE SMOOTH",
"243 687 OFFCURVE",
"228 700 OFFCURVE",
"205 700 CURVE SMOOTH",
"182 700 OFFCURVE",
"171 687 OFFCURVE",
"169 664 CURVE SMOOTH",
"109 36 LINE SMOOTH",
"107 13 OFFCURVE",
"122 0 OFFCURVE",
"145 0 CURVE SMOOTH",
"168 0 OFFCURVE",
"179 13 OFFCURVE",
"181 36 CURVE SMOOTH"
);
},
{
closed = 1;
nodes = (
"419 664 LINE SMOOTH",
"421 687 OFFCURVE",
"406 700 OFFCURVE",
"383 700 CURVE SMOOTH",
"360 700 OFFCURVE",
"349 687 OFFCURVE",
"347 664 CURVE SMOOTH",
"287 36 LINE SMOOTH",
"285 13 OFFCURVE",
"300 0 OFFCURVE",
"323 0 CURVE SMOOTH",
"346 0 OFFCURVE",
"357 13 OFFCURVE",
"359 36 CURVE SMOOTH"
);
},
{
closed = 1;
nodes = (
"97 296 LINE SMOOTH",
"76 296 OFFCURVE",
"60 280 OFFCURVE",
"60 260 CURVE SMOOTH",
"60 240 OFFCURVE",
"76 224 OFFCURVE",
"97 224 CURVE SMOOTH",
"431 224 LINE SMOOTH",
"452 224 OFFCURVE",
"468 240 OFFCURVE",
"468 260 CURVE SMOOTH",
"468 280 OFFCURVE",
"452 296 OFFCURVE",
"431 296 CURVE SMOOTH"
);
},
{
closed = 1;
nodes = (
"97 516 LINE SMOOTH",
"76 516 OFFCURVE",
"60 500 OFFCURVE",
"60 480 CURVE SMOOTH",
"60 460 OFFCURVE",
"76 444 OFFCURVE",
"97 444 CURVE SMOOTH",
"431 444 LINE SMOOTH",
"452 444 OFFCURVE",
"468 460 OFFCURVE",
"468 480 CURVE SMOOTH",
"468 500 OFFCURVE",
"452 516 OFFCURVE",
"431 516 CURVE SMOOTH"
);
}
);
width = 528;
}
);
unicode = 0023;
},
{
glyphname = period;
lastChange = "2016-09-22 22:59:57 +0000";
layers = (
{
layerId = "AB75F081-BB78-472F-B186-224F31AB1B09";
paths = (
{
closed = 1;
nodes = (
"190 0 OFFCURVE",
"210 20 OFFCURVE",
"210 45 CURVE SMOOTH",
"210 70 OFFCURVE",
"190 90 OFFCURVE",
"165 90 CURVE SMOOTH",
"140 90 OFFCURVE",
"120 70 OFFCURVE",
"120 45 CURVE SMOOTH",
"120 20 OFFCURVE",
"140 0 OFFCURVE",
"165 0 CURVE SMOOTH"
);
}
);
width = 330;
}
);
leftMetricsKey = I;
rightMetricsKey = I;
unicode = 002E;
},
{
glyphname = question;
lastChange = "2016-09-22 22:57:21 +0000";
layers = (
{
layerId = "AB75F081-BB78-472F-B186-224F31AB1B09";
paths = (
{
closed = 1;
nodes = (
"266 0 OFFCURVE",
"286 20 OFFCURVE",
"286 45 CURVE SMOOTH",
"286 70 OFFCURVE",
"266 90 OFFCURVE",
"241 90 CURVE SMOOTH",
"216 90 OFFCURVE",
"196 70 OFFCURVE",
"196 45 CURVE SMOOTH",
"196 20 OFFCURVE",
"216 0 OFFCURVE",
"241 0 CURVE SMOOTH"
);
},
{
closed = 1;
nodes = (
"425 628 OFFCURVE",
"346 700 OFFCURVE",
"239 700 CURVE SMOOTH",
"133 700 OFFCURVE",
"60 628 OFFCURVE",
"60 516 CURVE SMOOTH",
"60 495 OFFCURVE",
"76 479 OFFCURVE",
"95 479 CURVE SMOOTH",
"114 479 OFFCURVE",
"130 495 OFFCURVE",
"130 516 CURVE",
"129 581 OFFCURVE",
"173 628 OFFCURVE",
"241 628 CURVE SMOOTH",
"308 628 OFFCURVE",
"354 584 OFFCURVE",
"356 519 CURVE SMOOTH",
"360 403 OFFCURVE",
"206 400 OFFCURVE",
"206 323 CURVE",
"206 194 LINE SMOOTH",
"206 173 OFFCURVE",
"221 157 OFFCURVE",
"241 157 CURVE SMOOTH",
"262 157 OFFCURVE",
"278 173 OFFCURVE",
"278 194 CURVE SMOOTH",
"278 295 LINE SMOOTH",
"278 342 OFFCURVE",
"326 350 OFFCURVE",
"355 374 CURVE SMOOTH",
"401 412 OFFCURVE",
"428 454 OFFCURVE",
"427 520 CURVE SMOOTH"
);
}
);
width = 487;
}
);
unicode = 003F;
},
{
glyphname = quotedbl;
lastChange = "2016-09-22 22:57:21 +0000";
layers = (
{
layerId = "AB75F081-BB78-472F-B186-224F31AB1B09";
paths = (
{
closed = 1;
nodes = (
"132 673 LINE SMOOTH",
"132 694 OFFCURVE",
"117 710 OFFCURVE",
"97 710 CURVE SMOOTH",
"76 710 OFFCURVE",
"60 694 OFFCURVE",
"60 673 CURVE SMOOTH",
"60 537 LINE SMOOTH",
"60 516 OFFCURVE",
"75 500 OFFCURVE",
"95 500 CURVE SMOOTH",
"116 500 OFFCURVE",
"132 516 OFFCURVE",
"132 537 CURVE SMOOTH"
);
},
{
closed = 1;
nodes = (
"322 673 LINE SMOOTH",
"322 694 OFFCURVE",
"307 710 OFFCURVE",
"287 710 CURVE SMOOTH",
"266 710 OFFCURVE",
"250 694 OFFCURVE",
"250 673 CURVE SMOOTH",
"250 537 LINE SMOOTH",
"250 516 OFFCURVE",
"265 500 OFFCURVE",
"285 500 CURVE SMOOTH",
"306 500 OFFCURVE",
"322 516 OFFCURVE",
"322 537 CURVE SMOOTH"
);
}
);
width = 382;
}
);
unicode = 0022;
},
{
glyphname = quotesingle;
lastChange = "2016-09-22 22:57:21 +0000";
layers = (
{
layerId = "AB75F081-BB78-472F-B186-224F31AB1B09";
paths = (
{
closed = 1;
nodes = (
"132 673 LINE SMOOTH",
"132 694 OFFCURVE",
"117 710 OFFCURVE",
"97 710 CURVE SMOOTH",
"76 710 OFFCURVE",
"60 694 OFFCURVE",
"60 673 CURVE SMOOTH",
"60 537 LINE SMOOTH",
"60 516 OFFCURVE",
"75 500 OFFCURVE",
"95 500 CURVE SMOOTH",
"116 500 OFFCURVE",
"132 516 OFFCURVE",
"132 537 CURVE SMOOTH"
);
}
);
width = 192;
}
);
unicode = 0027;
},
{
glyphname = semicolon;
lastChange = "2016-09-22 22:59:57 +0000";
layers = (
{
layerId = "AB75F081-BB78-472F-B186-224F31AB1B09";
paths = (
{
closed = 1;
nodes = (
"205 500 OFFCURVE",
"225 519 OFFCURVE",
"225 546 CURVE SMOOTH",
"225 570 OFFCURVE",
"205 590 OFFCURVE",
"180 590 CURVE SMOOTH",
"155 590 OFFCURVE",
"135 570 OFFCURVE",
"135 546 CURVE SMOOTH",
"135 519 OFFCURVE",
"155 500 OFFCURVE",
"180 500 CURVE SMOOTH"
);
},
{
closed = 1;
nodes = (
"229 128 OFFCURVE",
"224 137 OFFCURVE",
"221 143 CURVE",
"219 148 OFFCURVE",
"216 152 OFFCURVE",
"213 155 CURVE",
"205 164 OFFCURVE",
"193 169 OFFCURVE",
"180 169 CURVE SMOOTH",
"155 169 OFFCURVE",
"135 149 OFFCURVE",
"135 125 CURVE SMOOTH",
"135 110 OFFCURVE",
"141 97 OFFCURVE",
"151 89 CURVE",
"129 61 LINE",
"115 45 OFFCURVE",
"117 23 OFFCURVE",
"132 10 CURVE",
"149 -3 OFFCURVE",
"171 -2 OFFCURVE",
"185 15 CURVE SMOOTH",
"210 46 OFFCURVE",
"229 69 OFFCURVE",
"229 86 CURVE SMOOTH",
"229 100 OFFCURVE",
"229 102 OFFCURVE",
"229 121 CURVE SMOOTH"
);
}
);
width = 349;
}
);
leftMetricsKey = I;
rightMetricsKey = I;
unicode = 003B;
},
{
glyphname = slash;
lastChange = "2016-09-22 22:57:21 +0000";
layers = (
{
layerId = "AB75F081-BB78-472F-B186-224F31AB1B09";
paths = (
{
closed = 1;
nodes = (
"55 29 OFFCURVE",
"67 10 OFFCURVE",
"87 5 CURVE SMOOTH",
"107 0 OFFCURVE",
"125 12 OFFCURVE",
"131 32 CURVE SMOOTH",
"321 655 LINE SMOOTH",
"327 675 OFFCURVE",
"315 694 OFFCURVE",
"295 699 CURVE SMOOTH",
"275 704 OFFCURVE",
"257 692 OFFCURVE",
"251 672 CURVE SMOOTH",
"61 49 LINE SMOOTH"
);
}
);
width = 384;
}
);
unicode = 002F;
},
{
glyphname = underscore;
lastChange = "2016-09-22 22:57:21 +0000";
layers = (
{
layerId = "AB75F081-BB78-472F-B186-224F31AB1B09";
paths = (
{
closed = 1;
nodes = (
"97 72 LINE SMOOTH",
"76 72 OFFCURVE",
"60 56 OFFCURVE",
"60 36 CURVE SMOOTH",
"60 16 OFFCURVE",
"76 0 OFFCURVE",
"97 0 CURVE SMOOTH",
"374 0 LINE SMOOTH",
"395 0 OFFCURVE",
"411 16 OFFCURVE",
"411 36 CURVE SMOOTH",
"411 56 OFFCURVE",
"395 72 OFFCURVE",
"374 72 CURVE SMOOTH"
);
}
);
width = 471;
}
);
unicode = 005F;
},
{
glyphname = braceleft;
lastChange = "2016-09-22 22:57:21 +0000";
layers = (
{
layerId = "AB75F081-BB78-472F-B186-224F31AB1B09";
paths = (
{
closed = 1;
nodes = (
"298 687 OFFCURVE",
"280 700 OFFCURVE",
"257 700 CURVE SMOOTH",
"36 700 OFFCURVE",
"157 434 OFFCURVE",
"88 392 CURVE SMOOTH",
"78 386 OFFCURVE",
"60 379 OFFCURVE",
"60 367 CURVE SMOOTH",
"60 334 LINE SMOOTH",
"60 322 OFFCURVE",
"78 316 OFFCURVE",
"88 310 CURVE SMOOTH",
"156 269 OFFCURVE",
"38 0 OFFCURVE",
"256 0 CURVE SMOOTH",
"280 0 OFFCURVE",
"298 13 OFFCURVE",
"298 33 CURVE SMOOTH",
"298 38 LINE SMOOTH",
"298 56 OFFCURVE",
"285 72 OFFCURVE",
"266 72 CURVE SMOOTH",
"128 72 OFFCURVE",
"223 263 OFFCURVE",
"154 351 CURVE",
"223 437 OFFCURVE",
"127 628 OFFCURVE",
"266 628 CURVE SMOOTH",
"285 628 OFFCURVE",
"298 645 OFFCURVE",
"298 663 CURVE SMOOTH",
"298 667 LINE SMOOTH"
);
}
);
width = 358;
}
);
unicode = 007B;
},
{
glyphname = braceright;
lastChange = "2016-09-22 22:57:21 +0000";
layers = (
{
layerId = "AB75F081-BB78-472F-B186-224F31AB1B09";
paths = (
{
closed = 1;
nodes = (
"60 663 LINE SMOOTH",
"60 645 OFFCURVE",
"73 628 OFFCURVE",
"92 628 CURVE SMOOTH",
"231 628 OFFCURVE",
"135 437 OFFCURVE",
"204 351 CURVE",
"135 263 OFFCURVE",
"230 72 OFFCURVE",
"92 72 CURVE SMOOTH",
"73 72 OFFCURVE",
"60 56 OFFCURVE",
"60 38 CURVE SMOOTH",
"60 33 LINE SMOOTH",
"60 13 OFFCURVE",
"78 0 OFFCURVE",
"102 0 CURVE SMOOTH",
"320 0 OFFCURVE",
"202 269 OFFCURVE",
"270 310 CURVE SMOOTH",
"280 316 OFFCURVE",
"298 322 OFFCURVE",
"298 334 CURVE SMOOTH",
"298 367 LINE SMOOTH",
"298 379 OFFCURVE",
"280 386 OFFCURVE",
"270 392 CURVE SMOOTH",
"201 434 OFFCURVE",
"322 700 OFFCURVE",
"101 700 CURVE SMOOTH",
"78 700 OFFCURVE",
"60 687 OFFCURVE",
"60 667 CURVE SMOOTH"
);
}
);
width = 358;
}
);
unicode = 007D;
},
{
glyphname = bracketleft;
lastChange = "2016-09-22 22:57:21 +0000";
layers = (
{
layerId = "AB75F081-BB78-472F-B186-224F31AB1B09";
paths = (
{
closed = 1;
nodes = (
"132 72 LINE",
"132 628 LINE",
"227 628 LINE SMOOTH",
"248 628 OFFCURVE",
"264 644 OFFCURVE",
"264 664 CURVE SMOOTH",
"264 684 OFFCURVE",
"248 700 OFFCURVE",
"227 700 CURVE SMOOTH",
"97 700 LINE SMOOTH",
"76 700 OFFCURVE",
"60 684 OFFCURVE",
"60 663 CURVE SMOOTH",
"60 37 LINE SMOOTH",
"60 16 OFFCURVE",
"76 0 OFFCURVE",
"97 0 CURVE SMOOTH",
"227 0 LINE SMOOTH",
"248 0 OFFCURVE",
"264 16 OFFCURVE",
"264 36 CURVE SMOOTH",
"264 56 OFFCURVE",
"248 72 OFFCURVE",
"227 72 CURVE SMOOTH"
);
}
);
width = 324;
}
);
unicode = 005B;
},
{
glyphname = bracketright;
lastChange = "2016-09-22 22:57:21 +0000";
layers = (
{
layerId = "AB75F081-BB78-472F-B186-224F31AB1B09";
paths = (
{
closed = 1;
nodes = (
"76 72 OFFCURVE",
"60 56 OFFCURVE",
"60 36 CURVE SMOOTH",
"60 16 OFFCURVE",
"76 0 OFFCURVE",
"97 0 CURVE SMOOTH",
"227 0 LINE SMOOTH",
"248 0 OFFCURVE",
"264 16 OFFCURVE",
"264 37 CURVE SMOOTH",
"264 663 LINE SMOOTH",
"264 684 OFFCURVE",
"248 700 OFFCURVE",
"227 700 CURVE SMOOTH",
"97 700 LINE SMOOTH",
"76 700 OFFCURVE",
"60 684 OFFCURVE",
"60 664 CURVE SMOOTH",
"60 644 OFFCURVE",
"76 628 OFFCURVE",
"97 628 CURVE SMOOTH",
"192 628 LINE",
"192 72 LINE",
"97 72 LINE SMOOTH"
);
}
);
width = 324;
}
);
unicode = 005D;
},
{
glyphname = parenleft;
lastChange = "2016-09-22 22:57:21 +0000";
layers = (
{
hints = (
{
horizontal = 1;
place = "{7, 0}";
},
{
horizontal = 1;
place = "{704, 0}";
}
);
layerId = "AB75F081-BB78-472F-B186-224F31AB1B09";
paths = (
{
closed = 1;
nodes = (
"108 244 OFFCURVE",
"102 456 OFFCURVE",
"220 642 CURVE SMOOTH",
"232 662 OFFCURVE",
"224 682 OFFCURVE",
"206 691 CURVE SMOOTH",
"187 701 OFFCURVE",
"168 694 OFFCURVE",
"156 675 CURVE SMOOTH",
"23 472 OFFCURVE",
"33 233 OFFCURVE",
"156 23 CURVE SMOOTH",
"167 4 OFFCURVE",
"187 -3 OFFCURVE",
"205 6 CURVE SMOOTH",
"223 15 OFFCURVE",
"232 36 OFFCURVE",
"221 55 CURVE SMOOTH"
);
}
);
width = 286;
}
);
unicode = 0028;
},
{
glyphname = parenright;
lastChange = "2016-09-22 22:57:21 +0000";
layers = (
{
hints = (
{
horizontal = 1;
place = "{5, 0}";
},
{
horizontal = 1;
place = "{705, 0}";
}
);
layerId = "AB75F081-BB78-472F-B186-224F31AB1B09";
paths = (
{
closed = 1;
nodes = (
"54 36 OFFCURVE",
"63 15 OFFCURVE",
"81 6 CURVE SMOOTH",
"99 -3 OFFCURVE",
"119 4 OFFCURVE",
"130 23 CURVE SMOOTH",
"253 233 OFFCURVE",
"263 472 OFFCURVE",
"130 675 CURVE SMOOTH",
"118 694 OFFCURVE",
"99 701 OFFCURVE",
"80 691 CURVE SMOOTH",
"62 682 OFFCURVE",
"54 662 OFFCURVE",
"66 642 CURVE SMOOTH",
"184 456 OFFCURVE",
"178 244 OFFCURVE",
"65 55 CURVE SMOOTH"
);
}
);
width = 286;
}
);
unicode = 0029;
},
{
glyphname = endash;
lastChange = "2016-09-22 22:57:21 +0000";
layers = (
{
layerId = "AB75F081-BB78-472F-B186-224F31AB1B09";
paths = (
{
closed = 1;
nodes = (
"97 359 LINE SMOOTH",
"76 359 OFFCURVE",
"60 343 OFFCURVE",
"60 323 CURVE SMOOTH",
"60 303 OFFCURVE",
"76 287 OFFCURVE",
"97 287 CURVE SMOOTH",
"434 287 LINE SMOOTH",
"455 287 OFFCURVE",
"471 303 OFFCURVE",
"471 323 CURVE SMOOTH",
"471 343 OFFCURVE",
"455 359 OFFCURVE",
"434 359 CURVE SMOOTH"
);
}
);
width = 531;
}
);
unicode = 2013;
},
{
glyphname = hyphen;
lastChange = "2016-09-22 22:57:21 +0000";
layers = (
{
layerId = "AB75F081-BB78-472F-B186-224F31AB1B09";
paths = (
{
closed = 1;
nodes = (
"97 386 LINE SMOOTH",
"76 386 OFFCURVE",
"60 370 OFFCURVE",
"60 350 CURVE SMOOTH",
"60 330 OFFCURVE",
"76 314 OFFCURVE",
"97 314 CURVE SMOOTH",
"374 314 LINE SMOOTH",
"395 314 OFFCURVE",
"411 330 OFFCURVE",
"411 350 CURVE SMOOTH",
"411 370 OFFCURVE",
"395 386 OFFCURVE",
"374 386 CURVE SMOOTH"
);
}
);
width = 471;
}
);
unicode = 002D;
},
{
glyphname = plus;
lastChange = "2016-09-22 22:57:21 +0000";
layers = (
{
layerId = "AB75F081-BB78-472F-B186-224F31AB1B09";
paths = (
{
closed = 1;
nodes = (
"319 556 LINE SMOOTH",
"319 577 OFFCURVE",
"303 593 OFFCURVE",
"283 593 CURVE SMOOTH",
"263 593 OFFCURVE",
"247 577 OFFCURVE",
"247 556 CURVE SMOOTH",
"247 144 LINE SMOOTH",
"247 123 OFFCURVE",
"263 107 OFFCURVE",
"283 107 CURVE SMOOTH",
"303 107 OFFCURVE",
"319 123 OFFCURVE",
"319 144 CURVE SMOOTH"
);
},
{
closed = 1;
nodes = (
"469 314 LINE SMOOTH",
"490 314 OFFCURVE",
"506 330 OFFCURVE",
"506 350 CURVE SMOOTH",
"506 370 OFFCURVE",
"490 386 OFFCURVE",
"469 386 CURVE SMOOTH",
"97 386 LINE SMOOTH",
"76 386 OFFCURVE",
"60 370 OFFCURVE",
"60 350 CURVE SMOOTH",
"60 330 OFFCURVE",
"76 314 OFFCURVE",
"97 314 CURVE SMOOTH"
);
}
);
width = 566;
}
);
unicode = 002B;
},
{
glyphname = equal;
lastChange = "2016-09-22 22:57:21 +0000";
layers = (
{
layerId = "AB75F081-BB78-472F-B186-224F31AB1B09";
paths = (
{
closed = 1;
nodes = (
"97 461 LINE SMOOTH",
"76 461 OFFCURVE",
"60 445 OFFCURVE",
"60 425 CURVE SMOOTH",
"60 405 OFFCURVE",
"76 389 OFFCURVE",
"97 389 CURVE SMOOTH",
"374 389 LINE SMOOTH",
"395 389 OFFCURVE",
"411 405 OFFCURVE",
"411 425 CURVE SMOOTH",
"411 445 OFFCURVE",
"395 461 OFFCURVE",
"374 461 CURVE SMOOTH"
);
},
{
closed = 1;
nodes = (
"97 301 LINE SMOOTH",
"76 301 OFFCURVE",
"60 285 OFFCURVE",
"60 265 CURVE SMOOTH",
"60 245 OFFCURVE",
"76 229 OFFCURVE",
"97 229 CURVE SMOOTH",
"374 229 LINE SMOOTH",
"395 229 OFFCURVE",
"411 245 OFFCURVE",
"411 265 CURVE SMOOTH",
"411 285 OFFCURVE",
"395 301 OFFCURVE",
"374 301 CURVE SMOOTH"
);
}
);
width = 471;
}
);
unicode = 003D;
},
{
glyphname = greater;
lastChange = "2016-09-22 22:57:21 +0000";
layers = (
{
layerId = "AB75F081-BB78-472F-B186-224F31AB1B09";
paths = (
{
closed = 1;
nodes = (
"290 328 LINE SMOOTH",
"297 340 OFFCURVE",
"297 354 OFFCURVE",
"290 366 CURVE SMOOTH",
"126 647 LINE SMOOTH",
"116 664 OFFCURVE",
"92 668 OFFCURVE",
"75 656 CURVE SMOOTH",
"58 644 OFFCURVE",
"57 623 OFFCURVE",
"67 605 CURVE SMOOTH",
"201 366 LINE SMOOTH",
"208 354 OFFCURVE",
"208 340 OFFCURVE",
"201 328 CURVE SMOOTH",
"67 89 LINE SMOOTH",
"57 71 OFFCURVE",
"58 50 OFFCURVE",
"75 38 CURVE SMOOTH",
"92 26 OFFCURVE",
"116 30 OFFCURVE",
"126 47 CURVE SMOOTH"
);
}
);
width = 354;
}
);
unicode = 003E;
},
{
glyphname = less;
lastChange = "2016-09-22 22:57:21 +0000";
layers = (
{
layerId = "AB75F081-BB78-472F-B186-224F31AB1B09";
paths = (
{
closed = 1;
nodes = (
"240 30 OFFCURVE",
"264 26 OFFCURVE",
"281 38 CURVE SMOOTH",
"298 50 OFFCURVE",
"299 71 OFFCURVE",
"289 89 CURVE SMOOTH",
"155 328 LINE SMOOTH",
"148 340 OFFCURVE",
"148 354 OFFCURVE",
"155 366 CURVE SMOOTH",
"289 605 LINE SMOOTH",
"299 623 OFFCURVE",
"298 644 OFFCURVE",
"281 656 CURVE SMOOTH",
"264 668 OFFCURVE",
"240 664 OFFCURVE",
"230 647 CURVE SMOOTH",
"66 366 LINE SMOOTH",
"59 354 OFFCURVE",
"59 340 OFFCURVE",
"66 328 CURVE SMOOTH",
"230 47 LINE SMOOTH"
);
}
);
width = 354;
}
);
unicode = 003C;
},
{
glyphname = asciitilde;
lastChange = "2016-09-22 22:57:21 +0000";
layers = (
{
layerId = "AB75F081-BB78-472F-B186-224F31AB1B09";
paths = (
{
closed = 1;
nodes = (
"394 376 OFFCURVE",
"380 350 OFFCURVE",
"350 350 CURVE SMOOTH",
"297 350 OFFCURVE",
"290 444 OFFCURVE",
"181 444 CURVE SMOOTH",
"114 444 OFFCURVE",
"72 391 OFFCURVE",
"60 322 CURVE SMOOTH",
"56 299 OFFCURVE",
"70 281 OFFCURVE",
"92 281 CURVE SMOOTH",
"111 281 OFFCURVE",
"128 295 OFFCURVE",
"131 314 CURVE SMOOTH",
"136 348 OFFCURVE",
"151 375 OFFCURVE",
"181 375 CURVE SMOOTH",
"233 375 OFFCURVE",
"241 281 OFFCURVE",
"350 281 CURVE SMOOTH",
"417 281 OFFCURVE",
"459 334 OFFCURVE",
"470 403 CURVE SMOOTH",
"475 426 OFFCURVE",
"461 444 OFFCURVE",
"439 444 CURVE SMOOTH",
"420 444 OFFCURVE",
"403 430 OFFCURVE",
"400 410 CURVE SMOOTH"
);
}
);
width = 532;
}
);
unicode = 007E;
},
{
glyphname = percent;
lastChange = "2016-09-22 22:57:21 +0000";
layers = (
{
layerId = "AB75F081-BB78-472F-B186-224F31AB1B09";
paths = (
{
closed = 1;
nodes = (
"450 636 LINE SMOOTH",
"459 655 OFFCURVE",
"452 676 OFFCURVE",
"433 685 CURVE SMOOTH",
"414 694 OFFCURVE",
"394 686 OFFCURVE",
"385 667 CURVE SMOOTH",
"99 64 LINE SMOOTH",
"90 45 OFFCURVE",
"97 24 OFFCURVE",
"116 15 CURVE SMOOTH",
"135 6 OFFCURVE",
"155 14 OFFCURVE",
"164 33 CURVE SMOOTH"
);
},
{
closed = 1;
nodes = (
"224 392 OFFCURVE",
"262 446 OFFCURVE",
"262 531 CURVE SMOOTH",
"262 616 OFFCURVE",
"224 670 OFFCURVE",
"161 670 CURVE SMOOTH",
"98 670 OFFCURVE",
"60 616 OFFCURVE",
"60 531 CURVE SMOOTH",
"60 446 OFFCURVE",
"98 392 OFFCURVE",
"161 392 CURVE SMOOTH"
);
},
{
closed = 1;
nodes = (
"144 464 OFFCURVE",
"132 484 OFFCURVE",
"132 531 CURVE SMOOTH",
"132 578 OFFCURVE",
"144 598 OFFCURVE",
"161 598 CURVE SMOOTH",
"178 598 OFFCURVE",
"190 578 OFFCURVE",
"190 531 CURVE SMOOTH",
"190 484 OFFCURVE",
"178 464 OFFCURVE",
"161 464 CURVE SMOOTH"
);
},
{
closed = 1;
nodes = (
"458 30 OFFCURVE",
"496 84 OFFCURVE",
"496 169 CURVE SMOOTH",
"496 254 OFFCURVE",
"458 308 OFFCURVE",
"395 308 CURVE SMOOTH",
"332 308 OFFCURVE",
"294 254 OFFCURVE",
"294 169 CURVE SMOOTH",
"294 84 OFFCURVE",
"332 30 OFFCURVE",
"395 30 CURVE SMOOTH"
);
},
{
closed = 1;
nodes = (
"378 102 OFFCURVE",
"366 122 OFFCURVE",
"366 169 CURVE SMOOTH",
"366 216 OFFCURVE",
"378 236 OFFCURVE",
"395 236 CURVE SMOOTH",
"412 236 OFFCURVE",
"424 216 OFFCURVE",
"424 169 CURVE SMOOTH",
"424 122 OFFCURVE",
"412 102 OFFCURVE",
"395 102 CURVE SMOOTH"
);
}
);
width = 556;
}
);
unicode = 0025;
},
{
glyphname = asciicircum;
lastChange = "2016-09-22 22:57:21 +0000";
layers = (
{
layerId = "AB75F081-BB78-472F-B186-224F31AB1B09";
paths = (
{
closed = 1;
nodes = (
"249 675 LINE SMOOTH",
"226 709 OFFCURVE",
"189 708 OFFCURVE",
"167 675 CURVE SMOOTH",
"65 525 LINE SMOOTH",
"53 508 OFFCURVE",
"61 486 OFFCURVE",
"79 476 CURVE SMOOTH",
"97 466 OFFCURVE",
"116 474 OFFCURVE",
"129 491 CURVE SMOOTH",
"208 599 LINE",
"287 492 LINE SMOOTH",
"301 473 OFFCURVE",
"317 466 OFFCURVE",
"335 476 CURVE SMOOTH",
"352 486 OFFCURVE",
"361 508 OFFCURVE",
"350 525 CURVE SMOOTH"
);
}
